<svg xmlns="http://www.w3.org/2000/svg" xmlns:xlink="http://www.w3.org/1999/xlink" viewBox="0 0 1109.55 480.07"><defs><style>.cls-1,.cls-16,.cls-29,.cls-35,.cls-36,.cls-5,.cls-50,.cls-59{fill:none;}.cls-2{isolation:isolate;}.cls-3{fill:#277ecf;}.cls-27,.cls-37,.cls-4,.cls-55{mix-blend-mode:multiply;}.cls-5{stroke:#e6e6e6;stroke-width:2.45px;}.cls-16,.cls-35,.cls-36,.cls-5,.cls-50,.cls-59{stroke-miterlimit:10;}.cls-6{fill:#63a5ff;}.cls-7{fill:#c3dffe;}.cls-42,.cls-66,.cls-8{fill:#fff;}.cls-9{fill:#00acee;}.cls-10,.cls-12,.cls-13,.cls-26,.cls-27,.cls-28,.cls-39,.cls-57,.cls-58{fill:#ff9b73;}.cls-10,.cls-12,.cls-26,.cls-28,.cls-29,.cls-39,.cls-57,.cls-58{stroke:#ef714b;stroke-linejoin:round;}.cls-10,.cls-12,.cls-26,.cls-28,.cls-29,.cls-35,.cls-39,.cls-57,.cls-58{stroke-linecap:round;}.cls-10{stroke-width:1.34px;}.cls-11{fill:#0b5ac4;}.cls-12{stroke-width:1.01px;}.cls-14{fill:#ef714b;}.cls-15,.cls-37{fill:#2d3644;}.cls-16{stroke:#2d3644;stroke-width:2.87px;}.cls-17{fill:#627193;}.cls-18{fill:#e6e6e6;}.cls-19{fill:#172d49;}.cls-20{fill:#7a8ba1;}.cls-21{fill:#1e2735;}.cls-22{fill:#28477a;}.cls-23{fill:#5f7ba3;}.cls-24{fill:#d4ddff;}.cls-25{fill:#0f81ff;}.cls-26{stroke-width:1.46px;}.cls-27{opacity:0.5;}.cls-28,.cls-29{stroke-width:1.51px;}.cls-30{fill:#e8e8e8;}.cls-31{fill:#7c83a0;}.cls-32{fill:#586377;}.cls-33{fill:#268eff;}.cls-34{fill:#282c36;}.cls-35,.cls-36,.cls-59{stroke:#fff;}.cls-35{stroke-width:4.31px;}.cls-36{stroke-width:0.72px;}.cls-38{fill:#001940;}.cls-39{stroke-width:1.46px;}.cls-40{fill:#2696ff;}.cls-41{fill:#96bcfe;}.cls-42{font-size:39.21px;font-family:Metropolis-Bold, Metropolis;font-weight:700;}.cls-43{fill:#f8f2ed;}.cls-44,.cls-45{fill:#0072ff;}.cls-45,.cls-47,.cls-66{fill-rule:evenodd;}.cls-46,.cls-47{fill:#878a8c;}.cls-48{fill:#d8d8d8;}.cls-49{fill:#161616;opacity:0.68;}.cls-50{stroke:#bdbdbd;stroke-width:1.25px;}.cls-51{fill:#bdbdbd;}.cls-52{fill:#ff3434;}.cls-53{fill:#fffffd;}.cls-54{fill:#2893ff;}.cls-55{fill:#dbdbdb;}.cls-56{clip-path:url(#clip-path);}.cls-57{stroke-width:1.6px;}.cls-58{stroke-width:0.79px;}.cls-59{stroke-width:1.61px;}.cls-60{fill:#5f6a82;}.cls-61{clip-path:url(#clip-path-2);}.cls-62{fill:#3c5a99;}.cls-63{fill:#a2b1ce;}.cls-64{fill:#e8ecf3;}.cls-65{fill:#a7b5d1;}.cls-67{fill:red;}</style><clipPath id="clip-path" transform="translate(7.29 -0.47)"><rect class="cls-1" x="614.71" y="45.24" width="134.74" height="163.05" transform="matrix(1, 0, 0, 1, 0.37, -1.99)"/></clipPath><clipPath id="clip-path-2" transform="translate(7.29 -0.47)"><rect class="cls-1" x="818.37" y="35.28" width="221.49" height="268.02" transform="translate(0.5 -2.72) rotate(0.17)"/></clipPath></defs><g class="cls-2"><g id="OBJECTS"><rect class="cls-3" x="173.01" y="453.3" width="331.9" height="26.78" rx="13.39"/><g class="cls-4"><rect class="cls-5" x="96.6" y="345.62" width="54.84" height="27.42"/><polyline class="cls-5" points="124 317.59 124 345.01 69.17 345.01"/><polyline class="cls-5" points="178.88 345.01 124.04 345.01 124.04 317.59"/><polyline class="cls-5" points="69.17 373.27 124 373.27 124 400.69"/><polyline class="cls-5" points="124.04 400.69 124.04 373.27 178.88 373.27"/></g><g class="cls-4"><rect class="cls-5" x="484.87" y="265.85" width="54.84" height="27.42"/><polyline class="cls-5" points="512.27 237.82 512.27 265.24 457.43 265.24"/><polyline class="cls-5" points="567.14 265.24 512.3 265.24 512.3 237.82"/><polyline class="cls-5" points="457.43 293.49 512.27 293.49 512.27 320.91"/><polyline class="cls-5" points="512.3 320.91 512.3 293.49 567.14 293.49"/></g><rect class="cls-6" x="7.29" y="44.04" width="291.67" height="196.9"/><rect class="cls-7" x="23.48" y="58.73" width="259.27" height="167.51"/><rect class="cls-6" x="146.11" y="47.06" width="14.01" height="191.91"/><rect class="cls-3" y="236.92" width="306.24" height="19.01"/><path class="cls-8" d="M231.16,99.83a8.8,8.8,0,0,0-2.68-3.07c-2.84-2-7.36-1.67-9.24,1.26-2.76-6.74-5.65-13.67-10.81-18.81s-13.22-8.08-19.9-5.18c-4.18,1.82-7.23,5.65-9,9.83s-2.3,8.62-3.29,13c-3-3.55-9.64-6.31-10.92.59a5.43,5.43,0,0,0,.08,2.38Z" transform="translate(7.29 -0.47)"/><path class="cls-8" d="M69,160.46H130.2c-.2-3.49-3.09-8.42-5.06-9.87a2.56,2.56,0,0,0-1.44-.6c-2.31,0-1.6,4.13-3.47,5.5-2.86-6.3-3.81-13.29-6-19.85-1.85-5.49-11.85-23.88-18.73-13.28-2.23,3.45-2.65,8.33-3.25,12.29-.69,4.63-3.13,17.29-.72,21.41a16.19,16.19,0,0,0-4.09-5.14c-1.78-1.3-4.3-1.83-6.21-.71a3.9,3.9,0,0,0-1.69,4.18c-1.81-2.4-4.88-3.9-7.77-3.19-3.43.83-5.66,5.29-3.72,8.23A5.42,5.42,0,0,0,69,160.46Z" transform="translate(7.29 -0.47)"/><path class="cls-9" d="M234.68,77.24Z" transform="translate(7.29 -0.47)"/><path class="cls-10" d="M273.81,217.28c9.56,7.5,23.56,18.25,30.42,22.46a6.23,6.23,0,0,1,3,5.37,11.59,11.59,0,0,1-2.91,7.62,6.19,6.19,0,0,1-7.9,1c-8-5.08-22.46-15.19-32.37-22.11a6.26,6.26,0,0,1-1.95-8.07c.71-1.36,1.51-2.85,2.3-4.31A6.27,6.27,0,0,1,273.81,217.28Z" transform="translate(7.29 -0.47)"/><path class="cls-11" d="M274.28,213.5q-8.11-5.81-16.68-10.94a133.12,133.12,0,0,0-12.31-6.93,10,10,0,0,0-10.6,1c-2.66,2-5.38,5.32-5.69,8.76a10.11,10.11,0,0,0,1.94,6.36c5.42,8.16,13.95,14.31,22,19.7,2.3,1.55,4.88,4.11,7.71,2.56,3.05-1.68,5.61-5,7.51-7.79C268.88,225.09,275.27,214.21,274.28,213.5Z" transform="translate(7.29 -0.47)"/><path class="cls-12" d="M292.72,235.84l6.73-29.3c.9-4,1.09-8.24-.78-12-2-4.16-5.27-7.81-6.2-12.45-.77-3.89.25-7.9,1.68-11.6a1.17,1.17,0,0,1,.54-.72c.35-.15,1.08-.08,1.26.25a2.27,2.27,0,0,1,.2,1.1c0,2-.7,4.08-.83,6.05-.1,1.38-.28,3.72,1.25,4.56a48.59,48.59,0,0,1,1.86-12.91c.19-.65.5-1.38,1.15-1.53a1.35,1.35,0,0,1,1.44,1.12,4.21,4.21,0,0,1-.21,2,28.77,28.77,0,0,0-.53,11.43,24.69,24.69,0,0,1,.22-9.8,5,5,0,0,1,.86-2.09c.48-.59.67-1,1.4-.79s.84,1,.75,1.81a25.63,25.63,0,0,1-.83,2.93c-.6,2.84,0,4.48.62,7.31a18.41,18.41,0,0,1-.18-5.15c.08-.87,1.45-3.85,2.3-3.51s.35,1.9.21,2.68a15.9,15.9,0,0,0,.55,6.32c.6,2.64,3.73,6.41,4.53,9a14.69,14.69,0,0,1,.49,6.22,49.64,49.64,0,0,0-.15,7.12c.11,5.51.3,9.1.11,14.6-.28,7.79-.87,15.58-1.76,23.32-.32,2.78,0,7.14-1.89,9.32a9.91,9.91,0,0,1-8.4,3.24,9.3,9.3,0,0,1-3.37-1.06" transform="translate(7.29 -0.47)"/><path class="cls-13" d="M299.2,186.38a4.94,4.94,0,0,1,4.51,5.78" transform="translate(7.29 -0.47)"/><path class="cls-14" d="M299.2,186.39l.25.08c.09,0,.08,0,.13.11a1.2,1.2,0,0,0,.34.23c.26.16.54.3.81.46a6.13,6.13,0,0,1,1.48,1.15,4.32,4.32,0,0,1,.88,1.65,6.71,6.71,0,0,1,.14,2,.5.5,0,0,0,1,.13,4.62,4.62,0,0,0-.12-2.36,5.53,5.53,0,0,0-1.1-2.07,4.81,4.81,0,0,0-1.77-1.33,3.16,3.16,0,0,0-1.05-.25,1.11,1.11,0,0,0-.51.07c-.06,0-.07.07-.14.09s-.22,0-.32,0,0,0,0,0Z" transform="translate(7.29 -0.47)"/><path class="cls-13" d="M298.09,194a24.26,24.26,0,0,0-9.32-7.91c-.76-.36-2.85-1.27-2.78-2.1,0-.49,1.17-.51,1.63-.69a5.89,5.89,0,0,1,1.88-.14,16.73,16.73,0,0,1,7.16,2.1" transform="translate(7.29 -0.47)"/><path class="cls-14" d="M298.1,194c-.51-.76-.88-1.58-1.43-2.31a16.87,16.87,0,0,0-1.83-2,22,22,0,0,0-4.42-3.26c-.66-.37-1.33-.69-2-1a6.16,6.16,0,0,1-1.7-1,1.78,1.78,0,0,1-.21-.27s-.12.12,0,.07a.46.46,0,0,1,.16-.07c.31,0,.64-.13.95-.21a6.08,6.08,0,0,1,2.21-.15,16.18,16.18,0,0,1,3.45.66c1.12.35,2.17,1,3.3,1.25a.35.35,0,0,0,.34-.58,7.22,7.22,0,0,0-2.86-1.47,17.11,17.11,0,0,0-3.38-.79,9.08,9.08,0,0,0-2.85,0,5.08,5.08,0,0,0-2,.59c-1.4,1,1,2.43,1.79,2.81a31.92,31.92,0,0,1,5,2.89,34.08,34.08,0,0,1,2.76,2.31c.44.4.86.81,1.28,1.22a15.06,15.06,0,0,1,1.43,1.45s0,0,0,0Z" transform="translate(7.29 -0.47)"/><path class="cls-15" d="M363.33,301.36H343.68a4.82,4.82,0,0,1,4.82-4.82h10a4.82,4.82,0,0,1,4.82,4.82Z" transform="translate(7.29 -0.47)"/><polyline class="cls-16" points="360.09 299.42 378.05 226.65 338.45 178.3"/><rect class="cls-15" x="335.61" y="166.5" width="4.97" height="26.44" transform="translate(177.88 523.57) rotate(-92.05)"/><path class="cls-17" d="M321.67,174.42a5.88,5.88,0,1,1-5.67,6.09A5.89,5.89,0,0,1,321.67,174.42Z" transform="translate(7.29 -0.47)"/><path class="cls-15" d="M323.86,174.77a5.89,5.89,0,0,0-2.19-.35,6.28,6.28,0,0,0-1.52.26l.41,11.35a5.93,5.93,0,0,0,1.53.15,5.56,5.56,0,0,0,2.16-.5Z" transform="translate(7.29 -0.47)"/><path class="cls-18" d="M243,157.83c.73,6.87,5.09,12,9.74,11.54s7.84-6.46,7.11-13.33-5.1-12-9.75-11.55S242.31,151,243,157.83Z" transform="translate(7.29 -0.47)"/><ellipse class="cls-19" cx="250.34" cy="157.05" rx="8.47" ry="12.51" transform="translate(-7.91 26.88) rotate(-6.07)"/><ellipse class="cls-8" cx="249.4" cy="157.5" rx="8.47" ry="12.51" transform="translate(-7.97 26.78) rotate(-6.07)"/><rect class="cls-20" x="162.02" y="182.04" width="5.75" height="48.55" transform="translate(-45.01 55.56) rotate(-16.69)"/><path class="cls-21" d="M229,359.24c2.87-2.8,1.78-5.62.56-8.1-4.8-9.78-12.21-18-18.05-27.21-12.2-19.22-15.52-41.69-13.59-64.05.87-10.07,1.08-21.43-6.58-29.07-5.58-5.58-12.84-10-16-17.6-1.36-3.27-3.3-7.41-7.58-6.6-2,.37-12.94,6.45-13.88,8a11.45,11.45,0,0,0-1.12,8.3c5.93,26.63,26.46,117,26.46,117l11.66,16.76a32.45,32.45,0,0,0,3.67,4.53c4.84,4.26,22.81,1.19,29,.46A9.35,9.35,0,0,0,229,359.24Z" transform="translate(7.29 -0.47)"/><path class="cls-22" d="M386.36,431.06l6.21,16.63,50.6-18.9h0a9.47,9.47,0,0,0-10.73-6,38.61,38.61,0,0,1-33.79-8.88Z" transform="translate(7.29 -0.47)"/><path class="cls-23" d="M244.15,368.25l78.61,19,65.55,47.11a33.42,33.42,0,0,0,14.56-21.8L337,354.34l-80.38-16.58Z" transform="translate(7.29 -0.47)"/><path class="cls-23" d="M368,444.47l-1.45,17.69,53.83,4.42h0a9.47,9.47,0,0,0-7.17-10,38.57,38.57,0,0,1-26.8-22.4Z" transform="translate(7.29 -0.47)"/><path class="cls-24" d="M266.56,318.81l-61.33,2.9,2.34,14.92a35.74,35.74,0,0,0,15.93,24.59c7.09,4.53,16.51,8.22,27.38,6.76,24.35-3.27,80.74-13.44,80.74-13.44l29.62,90.58c11.27-.51,21.66-3.6,30.68-10.68L359.51,331.57a16.81,16.81,0,0,0-14.67-11.71Z" transform="translate(7.29 -0.47)"/><path class="cls-25" d="M215.54,189.49l.19-.12c2.21-1.26,5-1.15,7.5-1a40.54,40.54,0,0,1,25,10.34,48.62,48.62,0,0,1,9.11,11.21c2.72,4.44,2.61,10.6,3.13,15.84,2.9,29.17,4.32,59.14,9.91,87.62a47.64,47.64,0,0,0,.94,4.67c.85,2.65,2.37,5.13,3.29,7.8-9.82,8.41-27.17,11.68-39.46,9.52A131.07,131.07,0,0,1,217.91,331c-7.77-2.49-15.52-5.37-22.37-9.82,3.57-13.55,8.57-27.56,9.74-40.93.35-4-.95-8.6-1.64-12.65-1.66-9.81-3.73-19.5-6-29.08-1.14-4.79-2.17-10.74-3.35-15.51-1-3.91-3.71-10.07-2.26-14a14.63,14.63,0,0,1,4-5.26,102,102,0,0,1,13-10C211.17,192.36,213.35,190.72,215.54,189.49Z" transform="translate(7.29 -0.47)"/><path class="cls-11" d="M195.54,321.16a82,82,0,0,0,17.88,8.32,57.89,57.89,0,0,1-2.26-8.18c-2.86-14,0-27.06,3.3-40.53q4.18,8.39,9.14,16.37a2.75,2.75,0,0,0,2.35,1.58c8.78,1.83,17.63,3.53,26.61,3.94,1.42.06,15.77-1.18,16,.32-.79-4.86-1.51-9.75-2.12-14.67-4.19-.18-8.39-.34-12.57-.63-6.48-.45-16.42-.57-21.09-5.85-2.41-2.72-3.37-6.53-4.56-9.86-1.58-4.46-3.53-8.81-5.25-13.22-3.7-9.45-7.2-19-10.93-28.41-2.36-6-4.62-12-7-18-1.5-3.74-4.22-9.88-8.24-9.32l-.75.68a14.63,14.63,0,0,0-4,5.26c-1.45,3.92,1.29,10.08,2.26,14,1.18,4.77,2.21,10.72,3.35,15.51,2.28,9.58,4.35,19.27,6,29.08.69,4.05,2,8.69,1.64,12.65C204.11,293.6,199.11,307.61,195.54,321.16Z" transform="translate(7.29 -0.47)"/><path class="cls-26" d="M233.46,164.68c-3.63-1.85-18.49-5.42-19.65.91-.56,3.08,1,6.75,1.95,9.63a19.08,19.08,0,0,1,.27,11.07,16.28,16.28,0,0,1-3.66,6.45c6.1,3.2,11.4,8,17.11,11.81,1.47,1,4,3.32,5.81,3.4,5.06.24,5-4.61,5.37-7.63.21-1.75.34-3.45.68-5.09a6.49,6.49,0,0,1-.73-.75c-1.89-2.28-2.29-4.74-2.53-7.59s-.79-5.7-.77-8.62a43,43,0,0,1,.3-4.82c.07-.61,1.1-4.44.84-4.75A16.6,16.6,0,0,0,233.46,164.68Z" transform="translate(7.29 -0.47)"/><path class="cls-27" d="M216.31,163.52a3,3,0,0,0-1.78,2.2,7.81,7.81,0,0,0,0,2.27,1.84,1.84,0,0,1,.73.84,56.82,56.82,0,0,0,25.17,27.76c0-.36.08-.74.15-1.11A5.13,5.13,0,0,1,240,195c-2.06-2.51-2.45-5.22-2.68-8-.09-1-.21-2-.33-3a37.93,37.93,0,0,1-.15-10.59c0-.19.15-.73.3-1.37.18-.81.55-2.42.59-3a15.91,15.91,0,0,0-4.64-3.69C230.14,163.8,220.44,161.48,216.31,163.52Z" transform="translate(7.29 -0.47)"/><path class="cls-28" d="M202.48,145.73c-.38,7.71,2.46,14.54,6.9,20.67,4.87,6.72,10,12.85,17.12,17.31,3.34,2.09,7.07,4.26,11.11,4.67a11,11,0,0,0,9.56-4.19c2.42-2.9,3.2-6.8,4.17-10.37,1.1-4,2.45-8.48,2.76-12.66.16-2-.87-3.33-1.34-5.23a14.3,14.3,0,0,1,.11-4.79,30.29,30.29,0,0,0-.82-10.26,57.67,57.67,0,0,0-2.77-9c-2.72-6.17-10.05-10.55-16.43-11.69A25.66,25.66,0,0,0,211.93,126,28,28,0,0,0,202.48,145.73Z" transform="translate(7.29 -0.47)"/><path class="cls-14" d="M246.59,168.73a6,6,0,0,1-2,1.46.64.64,0,0,1-.85-.29.63.63,0,0,1,.29-.85c.94-.46,1.82-1,1.94-1.78a3.26,3.26,0,0,0-.91-2l-.14-.18a14.65,14.65,0,0,1-2.71-7.56.64.64,0,1,1,1.27-.07,13.33,13.33,0,0,0,2.47,6.89l.13.18a4.18,4.18,0,0,1,1.14,2.95A2.48,2.48,0,0,1,246.59,168.73Z" transform="translate(7.29 -0.47)"/><path class="cls-8" d="M243,174.77a24,24,0,0,0,3.56-.76,2.46,2.46,0,0,0,.06-1.07.8.8,0,0,0-.43-.54,1.92,1.92,0,0,0-.87-.13,49.77,49.77,0,0,1-9.45-.22.65.65,0,0,0-.63.17,1.86,1.86,0,0,0,0,1.68A15.51,15.51,0,0,0,243,174.77Z" transform="translate(7.29 -0.47)"/><path class="cls-15" d="M243,174.77a15.51,15.51,0,0,1-7.76-.87,7.16,7.16,0,0,0,.72,1.49c2.23,3.5,7.75,3.18,10-.1a4.05,4.05,0,0,0,.57-1.28A24,24,0,0,1,243,174.77Z" transform="translate(7.29 -0.47)"/><path class="cls-15" d="M225.31,153.75a24.13,24.13,0,0,1,4.72-2.2,16.43,16.43,0,0,1,5.64,0,.42.42,0,0,0,.23-.79c-3.24-1.69-9-.59-10.92,2.65-.11.19.14.45.33.35Z" transform="translate(7.29 -0.47)"/><path class="cls-15" d="M233.74,161c2.61-.57,1.73-4.63-.88-4.06s-1.73,4.63.88,4.06Z" transform="translate(7.29 -0.47)"/><path class="cls-15" d="M250,160.18c2.64-.43,2-4.53-.65-4.11s-2,4.53.65,4.11Z" transform="translate(7.29 -0.47)"/><path class="cls-15" d="M245.23,152.06a12.8,12.8,0,0,1,4.17-1.25c1.37-.09,2.59.54,3.91.42a.37.37,0,0,0,.26-.57c-1.92-2.44-6.91-.88-8.44,1.26,0,.07,0,.18.1.14Z" transform="translate(7.29 -0.47)"/><path class="cls-15" d="M208.28,163.23c1.75-1.38,4.52-2.52,5.48-2.42,2.41.23,3.38,3,6.21,1.91a79.31,79.31,0,0,0-1.3-10.49c-.69-4.32-1.92-5.52,3.26-6.6a33.39,33.39,0,0,1-.72-12,20.86,20.86,0,0,0,11.4,11.18,3.1,3.1,0,0,0,2.85.09,2.66,2.66,0,0,0,.75-2.66,11.53,11.53,0,0,0-1.92-4.83c4.44,5.81,12.06,12,19.9,9.94a4.61,4.61,0,0,0,2.09-1c2.33-2.31-1.22-6.81-3-8.34,2.7,2.35,5.65,4.8,9.21,5.09a3.13,3.13,0,0,0,2.32-.54,3.18,3.18,0,0,0,.79-2.81,8.23,8.23,0,0,0-5.26-6.62c3.73-1.9,4.65-7.22,1.31-9.8a19.59,19.59,0,0,0-5.3-2.73c-.53-.17-6.65-1-6.58-.57-.83-5-5.43-8.65-10.46-10.06-8.78-2.46-17.94.22-26.12,3.57-4.7,1.93-9.88,5-10.45,9.79-1-1.68-3.82-1.63-5.36-.31a7.33,7.33,0,0,0-2.14,5.37c-.17,3.69.85,7.31,1.93,10.83a274.34,274.34,0,0,0,9.67,26.6C206.53,165,207.22,164.07,208.28,163.23Z" transform="translate(7.29 -0.47)"/><path class="cls-28" d="M216.4,162.58a9,9,0,0,0-5.46-4.4c-3.95-1-5.51,3-4.43,6.19,1.42,4.15,5.45,9.28,10.42,8" transform="translate(7.29 -0.47)"/><path class="cls-29" d="M209.73,163.82a1.49,1.49,0,0,1,.6-2.27c2-.54,3.54,2.4,3.94,4-1-.1-1.32,1.06-.86,1.78a2.77,2.77,0,0,0,2.28,1.11" transform="translate(7.29 -0.47)"/><path class="cls-30" d="M421.5,301.36H351.57a4.82,4.82,0,0,1,4.82-4.82h60.29a4.82,4.82,0,0,1,4.82,4.82Z" transform="translate(7.29 -0.47)"/><rect class="cls-20" x="153.16" y="186.92" width="5.75" height="48.55" transform="matrix(0.96, -0.29, 0.29, 0.96, -46.78, 53.23)"/><path class="cls-15" d="M217.53,366.45c2.87-2.79,1.78-5.61.56-8.1-4.81-9.78-12.21-18-18.05-27.21-12.21-19.22-15.53-41.69-13.59-64.05.87-10.07,1.07-21.43-6.59-29.07-5.58-5.57-12.83-10-16-17.6-1.36-3.27-3.3-7.41-7.57-6.6a6.28,6.28,0,0,0-4.26,3.19,11.46,11.46,0,0,0-1.12,8.3c5.93,26.64,27.36,119,27.36,119L190,361.11a33,33,0,0,0,3.67,4.54c4.85,4.26,12.28,4,18.44,3.29A9.35,9.35,0,0,0,217.53,366.45Z" transform="translate(7.29 -0.47)"/><path class="cls-25" d="M206.6,347.63A109.94,109.94,0,0,1,198,336.14a106.09,106.09,0,0,1-15-41.9,116.11,116.11,0,0,1-.92-22.58c.07-1.21.16-2.42.24-3.63.43-5.91.87-12-.74-17.88a21.81,21.81,0,0,0-3.9-7.88,54.93,54.93,0,0,0-5.41-5.58c-1.35-1.27-2.74-2.59-4-4a50.5,50.5,0,0,1-6.26-9.18c-.3-.54-.61-1.15-.92-1.77-1.3-2.57-2.77-5.47-5.36-6.62a5.46,5.46,0,0,0-1.55-.41,6.83,6.83,0,0,0-1.5,1.44,4.18,4.18,0,0,1,2.47.28c2.12.95,3.47,3.61,4.65,5.95.33.65.65,1.28,1,1.84a52.56,52.56,0,0,0,6.44,9.44c1.29,1.41,2.71,2.74,4.08,4a53,53,0,0,1,5.26,5.44,20,20,0,0,1,3.64,7.36c1.55,5.63,1.12,11.61.7,17.39-.09,1.23-.17,2.44-.24,3.66a117.41,117.41,0,0,0,.92,22.86,107.56,107.56,0,0,0,15.25,42.47,113.47,113.47,0,0,0,8.72,11.64,47.45,47.45,0,0,0,5.93,6.24.7.7,0,0,0,.46.16.71.71,0,0,0,.55-.25.74.74,0,0,0-.09-1A45.26,45.26,0,0,1,206.6,347.63Z" transform="translate(7.29 -0.47)"/><path class="cls-21" d="M169.23,185c-1.79-6.86-5.71-13.57-11.74-15a5.82,5.82,0,0,0-3.6.12c-1.56.64-11.31,5-11.31,5l10.73,34.21s10.45-5.18,11.95-5.88a8.44,8.44,0,0,0,3.94-3.93C171.3,195.16,170.39,189.45,169.23,185Z" transform="translate(7.29 -0.47)"/><path class="cls-15" d="M157.71,190.9c-1.59-7.1-5.31-14.08-11.31-15.86-13.61-4-6.25,30.59,1.54,34.46,3.52,1.74,7.49-.42,9.22-3.66C159.48,201.49,158.74,195.52,157.71,190.9Z" transform="translate(7.29 -0.47)"/><path class="cls-25" d="M160.13,193.09l7.82-3.27a16.57,16.57,0,0,0-.29-2.57l-8,3.33C159.88,191.48,160,192.33,160.13,193.09Z" transform="translate(7.29 -0.47)"/><path class="cls-25" d="M163.66,178.14,156,181.35a16.79,16.79,0,0,1,1.35,2.14l7.71-3.23A20.72,20.72,0,0,0,163.66,178.14Z" transform="translate(7.29 -0.47)"/><path class="cls-25" d="M159.11,188.13l7.93-3.32c-.27-.83-.57-1.61-.88-2.32l-7.83,3.27Q158.78,186.95,159.11,188.13Z" transform="translate(7.29 -0.47)"/><path class="cls-25" d="M163.54,178l-7.68,3.21.11.16,7.69-3.21Z" transform="translate(7.29 -0.47)"/><rect class="cls-31" x="213.36" y="309.63" width="5.75" height="48.55" transform="translate(-79.48 75.68) rotate(-16.69)"/><rect class="cls-31" x="239.58" y="335.96" width="48.55" height="5.75" transform="translate(-129.18 493.84) rotate(-73.32)"/><path class="cls-32" d="M217.27,327.34,212,309.83l-5.51,1.65,5,16.77Q214.39,327.7,217.27,327.34Z" transform="translate(7.29 -0.47)"/><path class="cls-32" d="M267.36,337.15l6.22-20.74-5.5-1.65-6,20C263.89,335.46,265.65,336.26,267.36,337.15Z" transform="translate(7.29 -0.47)"/><path class="cls-15" d="M207.16,320.91a125.48,125.48,0,0,1,65.49,10c4.24,1.92,9.27,1.22,11.79-3.09,2.17-3.7,1.17-9.86-3.09-11.79-23.28-10.56-48.71-15.13-74.19-12.35-4.62.51-8.62,3.61-8.62,8.62,0,4.27,4,9.13,8.62,8.62Z" transform="translate(7.29 -0.47)"/><rect class="cls-31" x="227.44" y="367.5" width="17.9" height="74.06" transform="translate(480.07 808.59) rotate(180)"/><path class="cls-32" d="M245.35,383.21V367.5H227.44v12.61A168,168,0,0,1,245.35,383.21Z" transform="translate(7.29 -0.47)"/><path class="cls-15" d="M191.79,457.24q44.93-17.87,89.86,0V442.68c-26-10.05-54.29-14.31-89.86,0Z" transform="translate(7.29 -0.47)"/><circle class="cls-15" cx="287.52" cy="462.77" r="7.98"/><circle class="cls-15" cx="201.8" cy="462.77" r="7.98"/><path class="cls-15" d="M293.18,377.73s2.88-13.13-14.74-25c-4.32-2.91-9.79-4-14.93-5.32-20.32-5.38-42.65-8.39-62.12-1-3.44,1.3-7,3.13-8.49,6.25-2,4-1.28,12.38,3.25,14.88C201.91,370.73,293.18,377.73,293.18,377.73Z" transform="translate(7.29 -0.47)"/><path class="cls-25" d="M288.27,377a22.3,22.3,0,0,0-4-10c-6.86-9.71-25.1-17.38-43.38-18.23-27.37-1.27-41,5.2-43.11,9.58a13.81,13.81,0,0,0-.24,9.68c.48.12,1.06.25,1.72.38-1.34-3-1.3-7.16-.19-9.43,1.47-3,12.27-8.93,35.13-8.93q3.15,0,6.62.16c17.59.82,35.76,8.39,42.28,17.62a20.73,20.73,0,0,1,3.79,9.3s0,.07,0,.11l1.45.12C288.28,377.11,288.27,377,288.27,377Z" transform="translate(7.29 -0.47)"/><path class="cls-8" d="M251.18,119.9c-2.84-4.71-6.17-8.6-11.26-10.93a22.18,22.18,0,0,0-20.1.09c-15.3,7.19-19.72,27.57-16.11,43.11l4.2-1c-3.27-14.08,1-32.23,13.74-38.23a22.1,22.1,0,0,1,18.4-.08,25.23,25.23,0,0,1,8.61,6.76A15.29,15.29,0,0,1,251.18,119.9Z" transform="translate(7.29 -0.47)"/><path class="cls-8" d="M202.22,164.06c2,6.59,7.33,10.82,11.8,9.43s6.43-7.86,4.38-14.46-7.33-10.82-11.8-9.43S200.17,157.46,202.22,164.06Z" transform="translate(7.29 -0.47)"/><path class="cls-19" d="M200.41,164.62c2,6.6,7.33,10.82,11.8,9.43s6.43-7.86,4.38-14.46-7.33-10.82-11.8-9.43S198.36,158,200.41,164.62Z" transform="translate(7.29 -0.47)"/><path class="cls-18" d="M199.07,165c2.05,6.6,7.33,10.82,11.8,9.44s6.43-7.86,4.38-14.46-7.33-10.82-11.8-9.44S197,158.43,199.07,165Z" transform="translate(7.29 -0.47)"/><path class="cls-33" d="M199.87,164.78c1.58,5.1,5.66,8.37,9.12,7.29s5-6.07,3.38-11.17-5.66-8.36-9.12-7.29S198.28,159.69,199.87,164.78Z" transform="translate(7.29 -0.47)"/><path class="cls-8" d="M200.72,164.52c1.37,4.4,4.89,7.22,7.87,6.29s4.3-5.24,2.93-9.64-4.89-7.22-7.87-6.3S199.35,160.12,200.72,164.52Z" transform="translate(7.29 -0.47)"/><polygon class="cls-33" points="215.45 163.94 212.19 158.99 211.22 164.06 215.45 163.94"/><path class="cls-34" d="M446.41,116.8h5.4a3.61,3.61,0,0,1,3.61,3.61v147a3.89,3.89,0,0,1-3.89,3.89H446.7a3.89,3.89,0,0,1-3.89-3.89v-147A3.61,3.61,0,0,1,446.41,116.8Z"/><path class="cls-35" d="M448.85,214.79v22.66L472.48,283a12,12,0,0,1-10.61,17.44h-27" transform="translate(7.29 -0.47)"/><path class="cls-8" d="M449.12,116.8h2.69a3.61,3.61,0,0,1,3.61,3.61v147a3.89,3.89,0,0,1-3.89,3.89h-2.41a0,0,0,0,1,0,0V116.8A0,0,0,0,1,449.12,116.8Z"/><path class="cls-8" d="M441.88,252.26h-6.36V267.9a3.89,3.89,0,0,0,3.89,3.89h2.47Z" transform="translate(7.29 -0.47)"/><path class="cls-8" d="M441.88,117.27h-2.76a3.6,3.6,0,0,0-3.6,3.61v5.47h6.36Z" transform="translate(7.29 -0.47)"/><line class="cls-36" x1="449.16" y1="116.8" x2="449.16" y2="271.32"/><rect class="cls-17" x="292.47" y="301.71" width="193.2" height="6.57" transform="translate(785.42 609.51) rotate(180)"/><polygon class="cls-17" points="426.98 468.58 367.6 468.58 367.6 443.1 371.98 434.48 367.6 434.48 367.6 402.98 372.6 394.62 367.6 394.62 367.6 352.29 371.99 347.6 367.6 347.6 367.6 325.36 371.99 319.27 367.6 319.27 367.6 307.75 426.98 307.75 426.98 468.58"/><rect class="cls-15" x="376.86" y="307.75" width="50.12" height="160.83"/><polygon class="cls-37" points="367.6 313.51 375.59 313.51 426.98 307.75 367.6 307.75 367.6 313.51"/><rect class="cls-15" x="367.6" y="339.31" width="15.2" height="2.85"/><rect class="cls-15" x="367.6" y="380.38" width="15.2" height="2.85"/><rect class="cls-15" x="367.6" y="421.44" width="15.2" height="2.85"/><path class="cls-15" d="M363.6,348.72h-3.73a1.43,1.43,0,0,1-1.43-1.42h0a1.43,1.43,0,0,1,1.43-1.43h3.73A1.42,1.42,0,0,1,365,347.3h0A1.42,1.42,0,0,1,363.6,348.72Z" transform="translate(7.29 -0.47)"/><path class="cls-15" d="M363.6,396.37h-3.73a1.43,1.43,0,0,1-1.43-1.43h0a1.43,1.43,0,0,1,1.43-1.43h3.73a1.42,1.42,0,0,1,1.42,1.43h0A1.42,1.42,0,0,1,363.6,396.37Z" transform="translate(7.29 -0.47)"/><path class="cls-15" d="M363.6,436.86h-3.73a1.43,1.43,0,0,1-1.43-1.42h0a1.43,1.43,0,0,1,1.43-1.43h3.73a1.42,1.42,0,0,1,1.42,1.43h0A1.42,1.42,0,0,1,363.6,436.86Z" transform="translate(7.29 -0.47)"/><path class="cls-15" d="M363.6,321.52h-3.73a1.43,1.43,0,0,1-1.43-1.43h0a1.43,1.43,0,0,1,1.43-1.42h3.73a1.42,1.42,0,0,1,1.42,1.42h0A1.42,1.42,0,0,1,363.6,321.52Z" transform="translate(7.29 -0.47)"/><path class="cls-38" d="M287.27,301.75s-.47-13.3,17.06-13.3,19.27,10.83,19.27,13.3C323.6,301.75,286.52,301,287.27,301.75Z" transform="translate(7.29 -0.47)"/><path class="cls-39" d="M203.51,242.36c6.59,11.94,28.36,39.75,31.73,43.14,2.14,2,14.17,5,21.94,4.79,21.1-.61,38.53-2.89,38.53-2.89l2.73-10s-42.72-3.32-49.9-6c-3.63-1.33-18.68-24.83-25-36.44A37,37,0,0,1,203.51,242.36Z" transform="translate(7.29 -0.47)"/><path class="cls-40" d="M203.63,247.89q-4.51-8.89-8.3-18.14a132.49,132.49,0,0,1-5-13.21,9.94,9.94,0,0,1,2.55-10.34c2.38-2.33,6.06-4.51,9.52-4.3a10.13,10.13,0,0,1,6,2.88c7.25,6.58,12,15.95,16.16,24.69,1.18,2.51,3.32,5.44,1.36,8-2.12,2.76-5.76,4.79-8.83,6.25C215.9,244.3,204.18,249,203.63,247.89Z" transform="translate(7.29 -0.47)"/><path class="cls-39" d="M297.32,277.34,317,275a5,5,0,0,1,3.61.88l7.67,5.47a.55.55,0,0,1,0,.89h0a3.65,3.65,0,0,1-4,.32l-5.13-2.77-4.85,1,8.55,3.07,7.1,4.84a.4.4,0,0,1,.09.56h0a3.46,3.46,0,0,1-4.2,1.12h0l-.17.18a3.84,3.84,0,0,1-4.42.89L316.08,289l-3.53-.19,7.95,4.55h0a3.46,3.46,0,0,1-3.8,1.16l-6.41-2.06L306,293h-.1A15.17,15.17,0,0,1,292.79,288l-1.88-2.08" transform="translate(7.29 -0.47)"/><path class="cls-14" d="M326.46,290.23a5.21,5.21,0,0,0-1.36-1.41c-.53-.48-1.09-.95-1.65-1.4a15.4,15.4,0,0,0-3.59-2.34,16.06,16.06,0,0,0-3.48-.84c-.6-.1-1.2-.21-1.79-.37a6.45,6.45,0,0,0-1-.25,5,5,0,0,0-1,.07.1.1,0,0,0-.09.15,2.33,2.33,0,0,0,1.24,1.17,9.35,9.35,0,0,0,1.8.47,21.76,21.76,0,0,1,3.59.73,15.92,15.92,0,0,1,3.71,2.18c.58.42,1.16.85,1.77,1.24a4.23,4.23,0,0,0,1.71.82c.12,0,.17-.13.13-.22Z" transform="translate(7.29 -0.47)"/><path class="cls-8" d="M358.31,76.07l-.22-29.64a11,11,0,0,1,10.88-11L417.15,35a11,11,0,0,1,11,10.88l.23,29.64a11,11,0,0,1-6.38,10l1.06,9.74-10.82-8.7-42.92.33A11,11,0,0,1,358.31,76.07Z" transform="translate(7.29 -0.47)"/><path class="cls-41" d="M391.93,72.62l13.6.08a.87.87,0,0,0,.32-.06,3.74,3.74,0,0,0,1.94-1.57,2.14,2.14,0,0,0,0-1.8h0a.85.85,0,0,1,.32-1h0a2.44,2.44,0,0,0,.88-3.07h0a.84.84,0,0,1,.27-1.05h0a2.2,2.2,0,0,0,.68-2.84h0a.83.83,0,0,1,.3-1.09h0s1.29-.87,1.09-2.06c-.14-.89-1.91-1.08-2.38-1.08l-9.06-.13a.84.84,0,0,1-.79-1.12h0c.39-1.09,1.3-4.3.86-6.11a21.64,21.64,0,0,0-1.52-4.13.8.8,0,0,0-.3-.33,1.51,1.51,0,0,0-.51-.23,1.69,1.69,0,0,0-1.24.19.85.85,0,0,0-.42.74l0,4,0,.14a33.69,33.69,0,0,1-5,8.34l-.09.11-1.66,1-.38.13-.06,10.92a.86.86,0,0,0,.84.85h0a.85.85,0,0,1,.42.11l1.6.94A.91.91,0,0,0,391.93,72.62Z" transform="translate(7.29 -0.47)"/><path class="cls-41" d="M378.35,73.47l8.6,0,0-6.71,0-8-8.59-.05Z" transform="translate(7.29 -0.47)"/><path class="cls-8" d="M479.08,49.33l48.38,5.56a11.07,11.07,0,0,1,9.74,12.26l-3.42,29.76a11.07,11.07,0,0,1-12.26,9.74L489.68,103l-17.15,10.92,1.32-12.74-.71-.08a11.07,11.07,0,0,1-9.74-12.27l3.41-29.76A11.08,11.08,0,0,1,479.08,49.33Z" transform="translate(7.29 -0.47)"/><path class="cls-41" d="M485,72.7c.6-4.23,3.6-7.81,8.75-7.26a8.1,8.1,0,0,1,6.78,5.33A8.15,8.15,0,0,1,508.24,67c7.06.75,8.69,8.6,5.4,13.79-3.49,5.49-9.18,9.13-15.34,11h-.1c-5.32-2.91-10.55-7.6-12.67-13.41A11.6,11.6,0,0,1,485,72.7Z" transform="translate(7.29 -0.47)"/><path class="cls-8" d="M503.62,132.73l34.38,16a8.62,8.62,0,0,1,4.18,11.46l-9.83,21.14a8.64,8.64,0,0,1-11.46,4.19L498.27,175l-15.35,3.85,4.1-9.08-.5-.24a8.62,8.62,0,0,1-4.18-11.46l9.83-21.14A8.62,8.62,0,0,1,503.62,132.73Z" transform="translate(7.29 -0.47)"/><path class="cls-41" d="M514,163.59,511.28,168l18.66-.65h0L522,150.44l-2.7,4.41a28.06,28.06,0,0,0-13.65-2,22.57,22.57,0,0,0-16.14,10.68s4.91-4.53,11.42-4.85C508.18,158.32,514,163.59,514,163.59Z" transform="translate(7.29 -0.47)"/><text class="cls-42" transform="translate(334.73 145.25)">LIVE</text><circle class="cls-8" cx="319.92" cy="131.86" r="7.89"/><rect class="cls-41" x="737.02" y="116.79" width="379.25" height="234.24" transform="translate(697.31 1159.39) rotate(-89.83)"/><polygon class="cls-43" points="800.64 425.08 566.4 424.39 566.4 424.39 567.5 45.14 801.74 45.83 800.64 425.08"/><polygon class="cls-43" points="794.71 425.06 572.34 424.41 572.34 424.41 573.43 45.16 795.8 45.81 794.71 425.06"/><rect class="cls-41" x="593.9" y="12.02" width="166.37" height="234.24" transform="translate(553.26 805.38) rotate(-89.83)"/><polygon class="cls-43" points="1044.52 427.58 822.15 426.93 822.15 426.93 822.5 302.5 1044.87 303.15 1044.52 427.58"/><path class="cls-44" d="M591.31,266h6.16a1.31,1.31,0,0,1,1.31,1.31v1.85a1.31,1.31,0,0,1-1.31,1.31H591.3a1.31,1.31,0,0,1-1.31-1.31v-1.84A1.32,1.32,0,0,1,591.31,266Z" transform="translate(320.96 856.41) rotate(-88.8)"/><path class="cls-45" d="M603.53,261.83c-.08.18-.22.36,0,.53.06.09.15.06.22.06l4.32.09a.4.4,0,0,0,.19,0,1,1,0,0,1,.87.89,3.84,3.84,0,0,0,0,.48.82.82,0,0,1-.32.55.45.45,0,0,0,0,.7,1.37,1.37,0,0,1,.37,1,1.23,1.23,0,0,1-.54.9.46.46,0,0,0-.12.69.93.93,0,0,1-.24,1.41.49.49,0,0,0-.16.6c.51,1.24-.16,2-1.49,1.94-1.91,0-3.81,0-5.72,0h-2.21c-.52,0-1.05-.21-1.05-.85,0-1.35.14-5.61.13-6.42a1.3,1.3,0,0,1,.23-.75,21.36,21.36,0,0,1,2.56-3.35,2.76,2.76,0,0,1,.37-.31,1.28,1.28,0,0,0,.57-1.13,4.64,4.64,0,0,1,.15-1.39,1.14,1.14,0,0,1,2-.39,3.23,3.23,0,0,1,.61,2.8A11.23,11.23,0,0,1,603.53,261.83Z" transform="translate(7.29 -0.47)"/><path class="cls-46" d="M657.64,259h6.16a1.31,1.31,0,0,1,1.31,1.31v1.85a1.31,1.31,0,0,1-1.31,1.31h-6.16a1.31,1.31,0,0,1-1.31-1.31v-1.84A1.32,1.32,0,0,1,657.64,259Z" transform="translate(393.2 915.89) rotate(-88.81)"/><path class="cls-47" d="M651.58,267.63c.08-.18.22-.36,0-.53,0-.09-.14-.06-.21-.06L647,267a.46.46,0,0,0-.2,0,1,1,0,0,1-.86-.9c0-.16,0-.32,0-.48a.78.78,0,0,1,.32-.54.45.45,0,0,0,0-.7,1.39,1.39,0,0,1-.37-1,1.25,1.25,0,0,1,.53-.91.46.46,0,0,0,.13-.69.93.93,0,0,1,.24-1.41.48.48,0,0,0,.16-.6c-.51-1.24.16-2,1.49-1.94,1.9,0,3.81.05,5.71,0h2.22c.52,0,1.05.21,1.05.85,0,1.35-.14,5.62-.13,6.42a1.43,1.43,0,0,1-.24.76,21.22,21.22,0,0,1-2.55,3.34,2.64,2.64,0,0,1-.37.31,1.27,1.27,0,0,0-.57,1.14,4.71,4.71,0,0,1-.15,1.39,1.15,1.15,0,0,1-2,.39,3.25,3.25,0,0,1-.61-2.81A10.32,10.32,0,0,1,651.58,267.63Z" transform="translate(7.29 -0.47)"/><path class="cls-46" d="M710.83,265.69v2.74l8.27-5.43h0l-8.24-5.48v2.74a14.92,14.92,0,0,0-6.73,2.85,12,12,0,0,0-4.38,9.28,9.39,9.39,0,0,1,11.1-6.7Z" transform="translate(7.29 -0.47)"/><rect class="cls-46" x="755.85" y="258.68" width="13.19" height="1.82" transform="translate(8.05 -2.69) rotate(0.17)"/><rect class="cls-46" x="755.84" y="262.49" width="13.19" height="1.82" transform="translate(8.06 -2.7) rotate(0.17)"/><rect class="cls-46" x="755.83" y="266.29" width="9.56" height="1.82" transform="translate(8.07 -2.69) rotate(0.17)"/><rect class="cls-46" x="766.95" y="266.32" width="8.6" height="1.82" transform="translate(8.07 -2.73) rotate(0.17)"/><polygon class="cls-46" points="777.69 271.12 777.66 262.47 779.47 262.47 779.5 271.12 777.69 271.12"/><rect class="cls-48" x="587.46" y="331.06" width="90.6" height="54.87" transform="translate(8.34 -2.32) rotate(0.17)"/><rect class="cls-49" x="653.54" y="371.79" width="15.07" height="8.52" transform="translate(8.39 -2.4) rotate(0.17)"/><rect class="cls-48" x="690.36" y="331.28" width="36.3" height="9.84" transform="translate(8.27 -2.54) rotate(0.17)"/><rect class="cls-48" x="690.31" y="351.44" width="49.01" height="4.76" transform="translate(8.32 -2.56) rotate(0.17)"/><rect class="cls-48" x="690.27" y="362.66" width="49.01" height="4.76" transform="translate(8.36 -2.56) rotate(0.17)"/><polygon class="cls-48" points="685.18 424.34 685.26 396.74 594.66 396.47 594.58 424.12 685.18 424.34"/><rect class="cls-48" x="690.19" y="397.3" width="36.3" height="9.84" transform="translate(8.47 -2.54) rotate(0.17)"/><rect class="cls-48" x="690.14" y="417.45" width="49.01" height="4.76" transform="translate(8.52 -2.56) rotate(0.17)"/><line class="cls-50" x1="566.7" y1="316.96" x2="800.94" y2="317.65"/><line class="cls-50" x1="566.81" y1="279.62" x2="801.05" y2="280.3"/><rect class="cls-51" x="627.56" y="224.86" width="63.37" height="7.52" transform="translate(7.96 -2.4) rotate(0.17)"/><rect class="cls-51" x="627.52" y="240.42" width="96.64" height="7.52" transform="translate(8 -2.45) rotate(0.17)"/><rect class="cls-51" x="592.88" y="292.93" width="82.81" height="12.16" transform="translate(8.16 -2.32) rotate(0.17)"/><circle class="cls-46" cx="601.57" cy="236.21" r="13.75" transform="translate(198.25 734.82) rotate(-71.99)"/><rect class="cls-52" x="719.42" y="294.33" width="52.97" height="9.2" transform="translate(8.17 -2.65) rotate(0.17)"/><rect class="cls-52" x="695.03" y="292.1" width="16.84" height="14.23" rx="3.42" transform="translate(8.17 -2.53) rotate(0.17)"/><polygon class="cls-53" points="708.26 298.74 708.27 295.31 711.23 297.03 714.2 298.75 711.22 300.46 708.25 302.17 708.26 298.74"/><rect class="cls-51" x="862.17" y="315.75" width="63.37" height="7.52" transform="translate(8.23 -3.08) rotate(0.17)"/><polyline class="cls-51" points="869.4 338.22 869.42 330.7 966.06 330.98 966.04 338.5"/><line class="cls-51" x1="966.04" y1="338.51" x2="869.4" y2="338.22"/><circle class="cls-46" cx="836.18" cy="327.1" r="13.75" transform="translate(273.89 1020.72) rotate(-71.99)"/><rect class="cls-51" x="863.17" y="355.75" width="63.37" height="7.52" transform="translate(8.34 -3.09) rotate(0.17)"/><polyline class="cls-51" points="870.4 378.22 870.42 370.7 967.06 370.98 967.04 378.5"/><line class="cls-51" x1="967.04" y1="378.51" x2="870.4" y2="378.22"/><polyline class="cls-51" points="870.4 411.22 870.42 403.7 967.06 403.98 967.04 411.5"/><line class="cls-51" x1="967.04" y1="411.51" x2="870.4" y2="411.22"/><circle class="cls-46" cx="837.18" cy="367.1" r="13.75" transform="translate(236.54 1049.31) rotate(-71.99)"/><circle class="cls-46" cx="838.59" cy="403.1" r="13.75" transform="translate(203.28 1075.52) rotate(-71.99)"/><circle class="cls-46" cx="1017.59" cy="403.1" r="13.75" transform="translate(326.94 1245.76) rotate(-71.99)"/><polygon class="cls-46" points="776.55 221.82 771.55 221.81 774.04 224.71 776.53 227.6 779.04 224.72 781.55 221.84 776.55 221.82"/><path class="cls-54" d="M755.49,337.8l14.9,0a4.15,4.15,0,0,0,4.15-4.12h0a4.16,4.16,0,0,0-4.12-4.15l-14.9,0a4.15,4.15,0,0,0-4.15,4.12h0A4.16,4.16,0,0,0,755.49,337.8Z" transform="translate(7.29 -0.47)"/><path class="cls-55" d="M764.09,334.59a7.57,7.57,0,1,0,7.59-7.55A7.58,7.58,0,0,0,764.09,334.59Z" transform="translate(7.29 -0.47)"/><path class="cls-44" d="M764.1,332.68a7.57,7.57,0,1,0,7.59-7.55A7.56,7.56,0,0,0,764.1,332.68Z" transform="translate(7.29 -0.47)"/><g class="cls-56"><path class="cls-57" d="M710.26,165.93h0a4.46,4.46,0,0,0-4.4,3.61c-2,10.29-4,30.05-3.58,40.4l20.57.06h0c-3.18-14.65-6.44-33.32-8.26-40.68A4.46,4.46,0,0,0,710.26,165.93Z" transform="translate(7.29 -0.47)"/><path class="cls-40" d="M704.71,183c1.72-12.82,4.43-24.51,5.26-25.44s2,1.08,2.93,3.07a29.23,29.23,0,0,1,1.74,5c.75,3,2.32,9.3,4.23,17.36Z" transform="translate(7.29 -0.47)"/><path class="cls-57" d="M631,165.7h0a4.46,4.46,0,0,1,4.38,3.63c1.92,10.3,3.87,30.08,3.34,40.42l-20.57-.06h0c3.27-14.63,6.63-33.28,8.49-40.62A4.47,4.47,0,0,1,631,165.7Z" transform="translate(7.29 -0.47)"/><path class="cls-40" d="M636.43,182.82c-1.65-12.82-4.29-24.54-5.11-25.47s-2,1.07-3,3.05a29.23,29.23,0,0,0-1.77,5c-.77,3-2.37,9.29-4.33,17.34Z" transform="translate(7.29 -0.47)"/><path class="cls-57" d="M681.88,139.6c-.56-6.94-1.56-19.41-1.56-19.41l-18.56-.06-1.35,19.09a8.25,8.25,0,0,1-4.75,6.88l-23.63,11,6.77,50.18,65.39.2,5.6-49-23.51-12.24A8.21,8.21,0,0,1,681.88,139.6Z" transform="translate(7.29 -0.47)"/><path class="cls-27" d="M668.45,140.94c5.34,1.21,10.8-2.38,13.33-6.87l-1.12-13.91a.34.34,0,0,0-.34-.32l-18.56,0a.34.34,0,0,0-.34.32l-1,14.28C662.54,137.2,664.93,140.14,668.45,140.94Z" transform="translate(7.29 -0.47)"/><path class="cls-25" d="M687.61,145.41S683.81,162,671,162s-16.71-17.16-16.71-17.16L630.8,157.09,635.67,210l35.18.1,35,.1,5-52.68Z" transform="translate(7.29 -0.47)"/><path class="cls-57" d="M693.19,101.29c1.27.5,2,2.15,2.12,3.72a15.4,15.4,0,0,1-3.59,11.25,4.5,4.5,0,0,1-1.5,1.25c-4.11,1.9-2.55-10.09-2.14-12C688.54,103.51,690.6,100.27,693.19,101.29Z" transform="translate(7.29 -0.47)"/><path class="cls-58" d="M693.17,105.89a2.61,2.61,0,0,0-.27-.83.87.87,0,0,0-.7-.46c-.54,0-.85.61-1,1.14a16.07,16.07,0,0,0-.59,4.2.34.34,0,0,1,.47-.06.78.78,0,0,1,.27.45,2.66,2.66,0,0,1-1.87,3.21" transform="translate(7.29 -0.47)"/><path class="cls-57" d="M649.56,101.16c-1.27.49-2,2.15-2.14,3.71a15.38,15.38,0,0,0,3.52,11.27,4.73,4.73,0,0,0,1.49,1.26c4.1,1.92,2.61-10.08,2.21-11.94C654.2,103.41,652.16,100.16,649.56,101.16Z" transform="translate(7.29 -0.47)"/><path class="cls-58" d="M649.55,105.76a2.69,2.69,0,0,1,.27-.83.86.86,0,0,1,.71-.45c.54,0,.85.61,1,1.14a15.77,15.77,0,0,1,.57,4.21.34.34,0,0,0-.47-.07.79.79,0,0,0-.28.45,2.67,2.67,0,0,0,1.86,3.22" transform="translate(7.29 -0.47)"/><path class="cls-57" d="M652.38,100.26a48.9,48.9,0,0,1,1.47-9.4,18.26,18.26,0,0,1,8.35-11.5,22.4,22.4,0,0,1,15.68-2,15.77,15.77,0,0,1,9.69,6.34c2.37,3.54,2.6,8.9,2.93,13.08a55.83,55.83,0,0,1-1.58,18.43,32.31,32.31,0,0,1-6.74,13.49c-2.65,3-6.22,5.21-10.21,5.31a11.79,11.79,0,0,1-1.88-.11c-4.4-.59-8-3.58-10.64-7.07a38.32,38.32,0,0,1-6.88-18.45A48.7,48.7,0,0,1,652.38,100.26Z" transform="translate(7.29 -0.47)"/><path class="cls-15" d="M693.08,96.51c-.32-1.59-.73-3.1-.8-3.71a2.67,2.67,0,0,0,1.4,2,4.44,4.44,0,0,0,2.41.49c5.54-.26,4.5-7,1.71-9.81a4.92,4.92,0,0,0-4.15-1.54,6,6,0,0,0,4.74-3.59c1.61-3.83-1-7-4.58-8.16-1.8-.57-3.89-.79-5.48.22.17-2-1.64-3.7-3.38-4.81-7.7-4.9-22.78-8.25-29.48.25,1-1.47-1.44-3.25-3-2.47s-2.13,2.73-2.45,4.46c-1.54,8.45-.8,17.94-.84,26.55,0,1.52.07,3,.13,4.57,0,0,.08,0,.2,0a1.62,1.62,0,0,1,1.65,0c.82.25,1,1.4,1.07,2.43.13.66.08,1.48.14,2.09l.24,2.71L654.24,99c.93-5.18.79-10,3.2-14.86.23-.46.59-1,1.11-1a1.33,1.33,0,0,1,.73.4c2.1,1.83,4,4,6.42,5.45,1.69,1.07,4.31,2.22,6.23,1.28a4,4,0,0,0,2-4.43,18.39,18.39,0,0,0,2.17,4.87,6.51,6.51,0,0,0,4.31,2.89,4,4,0,0,0,4.3-2.43,16.63,16.63,0,0,0,.34-2.55,4.59,4.59,0,0,0,.89,1.53,1.57,1.57,0,0,0,1.63.43c.31,2.53.42,5.07.66,7.6.35,3.58,1.06,7.15,1.61,10.71.19-1.54.38-3.09.56-4.63a4.94,4.94,0,0,1,.65-2.21,1.85,1.85,0,0,1,1.45-.78C693.83,101.34,693.56,98.85,693.08,96.51Z" transform="translate(7.29 -0.47)"/><path class="cls-57" d="M671.71,117a3.11,3.11,0,0,1-2.65-4l.93-10" transform="translate(7.29 -0.47)"/><path class="cls-15" d="M661.39,107.8a1.8,1.8,0,0,1,.41-3.57,1.8,1.8,0,0,1-.41,3.57Z" transform="translate(7.29 -0.47)"/><path class="cls-15" d="M654.94,100.73a16.68,16.68,0,0,1,5-1.11,14.71,14.71,0,0,1,5,1.12c.58.2.88-.64.4-.95a10,10,0,0,0-10.71.27c-.3.23-.15.8.28.67Z" transform="translate(7.29 -0.47)"/><path class="cls-15" d="M680.68,107.86a1.8,1.8,0,0,0-.39-3.58,1.8,1.8,0,0,0,.39,3.58Z" transform="translate(7.29 -0.47)"/><path class="cls-15" d="M687.46,100.16a10,10,0,0,0-10.72-.33c-.47.3-.18,1.14.4,1a13.8,13.8,0,0,1,5-1.09,17.75,17.75,0,0,1,5,1.13c.42.14.57-.43.28-.66Z" transform="translate(7.29 -0.47)"/><path class="cls-8" d="M673.56,122.61a30.16,30.16,0,0,0,4.2-.89,2.72,2.72,0,0,0,.07-1.26.88.88,0,0,0-.5-.64,2.05,2.05,0,0,0-1-.15,57.92,57.92,0,0,1-11.17-.31.83.83,0,0,0-.75.21,2.2,2.2,0,0,0,0,2A18.32,18.32,0,0,0,673.56,122.61Z" transform="translate(7.29 -0.47)"/><path class="cls-15" d="M673.56,122.61a18.32,18.32,0,0,1-9.17-1.06,8.56,8.56,0,0,0,.84,1.76c2.63,4.15,9.15,3.79,11.86-.08a4.75,4.75,0,0,0,.67-1.51A30.16,30.16,0,0,1,673.56,122.61Z" transform="translate(7.29 -0.47)"/><path class="cls-8" d="M691.08,94.79h0a1.54,1.54,0,0,0-1.55,1.51L689.24,117a1.52,1.52,0,0,0,1.51,1.55h0a5.88,5.88,0,0,0,6-5.81l.17-11.94A5.89,5.89,0,0,0,691.08,94.79Z" transform="translate(7.29 -0.47)"/><path class="cls-33" d="M691.76,94.84a5.7,5.7,0,0,1,2.16.73l-.31,22.26a6,6,0,0,1-2.19.66Z" transform="translate(7.29 -0.47)"/><path class="cls-8" d="M688.13,72.51a8.11,8.11,0,0,1,3.34-.83A22.58,22.58,0,0,0,664.84,64c-12.36,5-17.78,17.85-17.2,30.47.1,2,3.26,2,3.17,0-.45-9.77,2.67-20.09,11.38-25.57A20,20,0,0,1,688.13,72.51Z" transform="translate(7.29 -0.47)"/><path class="cls-8" d="M650.38,93.87h0A1.53,1.53,0,0,1,652,95.35l.72,20.65a1.53,1.53,0,0,1-1.48,1.59h0a5.91,5.91,0,0,1-6.1-5.69L644.7,100A5.88,5.88,0,0,1,650.38,93.87Z" transform="translate(7.29 -0.47)"/><path class="cls-33" d="M649.71,93.93a5.82,5.82,0,0,0-2.15.77l.77,22.25a5.92,5.92,0,0,0,2.21.62Z" transform="translate(7.29 -0.47)"/><path class="cls-57" d="M719.14,229.83c1.63-6,3.75-14.48,8-28.84,2.68-9,3.72-32.78,5.23-42.3.23-1.49.46-3,.68-4.45a10.83,10.83,0,0,1,.68-2.76,21.94,21.94,0,0,1,1.56-2.52c1.41-2.29,1.08-4.8,2.06-7.09a18,18,0,0,1,3.55-5.47c2.29-2.46,4-4.5,2.72-5.21s-5.29,4.62-8.75,7.91a67.37,67.37,0,0,1,3.4-7.47c1.76-3.59,3.45-6.48,1.68-6.55s-4.47,5.79-8.45,12.09l-.27-.13c.16-.9,2-7.18,2.35-8.59.71-2.47,1.57-4.66,1.58-5.73s-1.06-2.84-2.65.23c-1.38,4-4.54,13.12-4.63,12.61h-.31c-.81-7.11,1.32-12.07-.53-13s-1.92,5.26-2.13,8.42c-.17,2.28-1.51,7.12-3.28,8.78a2.21,2.21,0,0,1-1.88.27,2.72,2.72,0,0,1-.53-.17c-.86-.39-1.6-3.46-3.13-4.8s-2.58.5-2.58.5a29.05,29.05,0,0,1,3.38,8.26c.67,3.8,3.62,5.08,4.38,7,.39,1,0,4.31,0,4.31-1,7.28-7.23,36.15-10.16,47.37" transform="translate(7.29 -0.47)"/><path class="cls-14" d="M727.32,144.86c-1.76-3.4-6.59-4.43-7.19-4.54a2.7,2.7,0,0,0,2.13-.86C727.05,140.91,727.32,144.86,727.32,144.86Z" transform="translate(7.29 -0.47)"/></g><polyline class="cls-59" points="587.48 60.76 593.78 67.32 600.12 60.8"/><rect class="cls-51" x="559.73" y="209.08" width="234.24" height="4.15" transform="translate(7.91 -2.45) rotate(0.17)"/><rect class="cls-52" x="579.92" y="188.61" width="4.15" height="44.54" transform="translate(376.7 791.79) rotate(-89.83)"/><path class="cls-52" d="M607.75,211a4.26,4.26,0,1,1-4.24-4.27A4.26,4.26,0,0,1,607.75,211Z" transform="translate(7.29 -0.47)"/><path class="cls-21" d="M794.44,46.28l-234.22-.69,0-6.88A19.16,19.16,0,0,1,579.46,19.6l195.9.58a19.15,19.15,0,0,1,19.1,19.21Z" transform="translate(7.29 -0.47)"/><path class="cls-21" d="M774,479.23l-195.88-.6a19.16,19.16,0,0,1-19.1-19.22l.1-34.56,234.2.72-.11,34.56A19.15,19.15,0,0,1,774,479.23Z" transform="translate(7.29 -0.47)"/><path class="cls-60" d="M688.1,448.79a13.19,13.19,0,1,1-15.4-10.52A13.19,13.19,0,0,1,688.1,448.79Z" transform="translate(7.29 -0.47)"/><path class="cls-60" d="M685.08,31.92a6.57,6.57,0,1,1-7.68-5.24A6.57,6.57,0,0,1,685.08,31.92Z" transform="translate(7.29 -0.47)"/><polygon class="cls-21" points="572.34 424.41 573.43 45.16 647.61 45.38 567.5 45.14 566.4 424.39 670.75 424.7 572.34 424.41"/><rect class="cls-21" x="601.31" y="232.94" width="379.25" height="5.94" transform="translate(559.99 1025.68) rotate(-89.83)"/><path class="cls-21" d="M1044.27,45l-234.22-.69,0-6.88a19.17,19.17,0,0,1,19.22-19.11l195.9.58a19.15,19.15,0,0,1,19.1,19.21Z" transform="translate(7.29 -0.47)"/><path class="cls-21" d="M1023.86,477.92,828,477.31a19.16,19.16,0,0,1-19.1-19.22l.1-34.55,234.2.71-.1,34.56A19.17,19.17,0,0,1,1023.86,477.92Z" transform="translate(7.29 -0.47)"/><path class="cls-60" d="M937.93,447.47A13.19,13.19,0,1,1,922.53,437,13.19,13.19,0,0,1,937.93,447.47Z" transform="translate(7.29 -0.47)"/><path class="cls-60" d="M934.91,30.6a6.57,6.57,0,1,1-7.67-5.24A6.57,6.57,0,0,1,934.91,30.6Z" transform="translate(7.29 -0.47)"/><polygon class="cls-21" points="822.17 423.09 823.27 43.84 897.44 44.06 817.33 43.82 816.23 423.07 920.58 423.38 822.17 423.09"/><rect class="cls-21" x="851.14" y="231.63" width="379.25" height="5.94" transform="translate(810.41 1274.2) rotate(-89.83)"/><g class="cls-61"><path class="cls-57" d="M975.43,233.67h0a7.32,7.32,0,0,0-7.24,5.93c-3.26,16.91-6.65,49.4-5.89,66.41l33.83.09h0c-5.23-24.08-10.59-54.77-13.58-66.85A7.34,7.34,0,0,0,975.43,233.67Z" transform="translate(7.29 -0.47)"/><path class="cls-40" d="M966.31,261.76c2.83-21.07,7.28-40.29,8.65-41.83s3.34,1.79,4.82,5a49.57,49.57,0,0,1,2.85,8.3c1.23,4.92,3.81,15.3,7,28.55Z" transform="translate(7.29 -0.47)"/><path class="cls-57" d="M845.11,233.29h0a7.33,7.33,0,0,1,7.21,6c3.16,16.93,6.35,49.44,5.49,66.44L824,305.6h0c5.37-24.05,10.91-54.71,14-66.78A7.34,7.34,0,0,1,845.11,233.29Z" transform="translate(7.29 -0.47)"/><path class="cls-40" d="M854.06,261.43c-2.7-21.08-7-40.33-8.4-41.88s-3.34,1.77-4.85,5a48.3,48.3,0,0,0-2.89,8.28c-1.27,4.91-3.91,15.27-7.12,28.51Z" transform="translate(7.29 -0.47)"/><path class="cls-57" d="M928.78,190.38c-.92-11.41-2.56-31.9-2.56-31.9l-30.52-.09-2.22,31.37a13.52,13.52,0,0,1-7.79,11.31l-38.85,18.05L858,301.61l107.5.32,9.19-80.53L936,201.28A13.49,13.49,0,0,1,928.78,190.38Z" transform="translate(7.29 -0.47)"/><path class="cls-27" d="M906.71,192.59c8.77,2,17.74-3.91,21.9-11.29l-1.83-22.87a.57.57,0,0,0-.56-.52l-30.51-.09a.57.57,0,0,0-.57.53l-1.66,23.48C897,186.45,900.92,191.27,906.71,192.59Z" transform="translate(7.29 -0.47)"/><path class="cls-25" d="M938.2,199.93s-6.24,27.31-27.33,27.25c-21.29-.06-27.46-28.22-27.46-28.22l-38.6,20.17,8,87,57.82.17,57.62.17,8.22-86.6Z" transform="translate(7.29 -0.47)"/><path class="cls-57" d="M947.37,127.41c2.08.82,3.25,3.54,3.48,6.11A25.23,25.23,0,0,1,945,152a7.66,7.66,0,0,1-2.47,2.07c-6.76,3.12-4.19-16.59-3.51-19.65C939.73,131.06,943.11,125.74,947.37,127.41Z" transform="translate(7.29 -0.47)"/><path class="cls-58" d="M947.34,135a4,4,0,0,0-.44-1.36,1.46,1.46,0,0,0-1.15-.76c-.9,0-1.41,1-1.65,1.87a26.5,26.5,0,0,0-1,6.91.56.56,0,0,1,.78-.1,1.31,1.31,0,0,1,.44.74,4.38,4.38,0,0,1-3.08,5.27" transform="translate(7.29 -0.47)"/><path class="cls-57" d="M875.65,127.2c-2.08.8-3.26,3.52-3.51,6.09a25.25,25.25,0,0,0,5.78,18.53,7.68,7.68,0,0,0,2.46,2.08c6.74,3.16,4.28-16.57,3.62-19.63C883.28,130.89,879.93,125.55,875.65,127.2Z" transform="translate(7.29 -0.47)"/><path class="cls-58" d="M875.64,134.76a4.27,4.27,0,0,1,.45-1.36,1.41,1.41,0,0,1,1.15-.75c.9,0,1.4,1,1.64,1.88a26.47,26.47,0,0,1,.93,6.92.57.57,0,0,0-.78-.11,1.32,1.32,0,0,0-.45.73,4.4,4.4,0,0,0,3,5.3" transform="translate(7.29 -0.47)"/><path class="cls-57" d="M880.29,125.71a80.45,80.45,0,0,1,2.42-15.45c2-7.77,6.64-14.94,13.73-18.89,7.82-4.37,17.26-5.19,25.76-3.28,6.28,1.42,12.28,4.94,15.94,10.42,3.9,5.83,4.26,14.63,4.81,21.5a91.69,91.69,0,0,1-2.59,30.29c-2.08,8-5.55,16-11.08,22.18-4.37,4.89-10.23,8.56-16.79,8.73a18.78,18.78,0,0,1-3.09-.17c-7.24-1-13.2-5.89-17.48-11.63-6.41-8.57-10.1-19.52-11.32-30.32A79.12,79.12,0,0,1,880.29,125.71Z" transform="translate(7.29 -0.47)"/><path class="cls-15" d="M947.2,119.56c-.53-2.61-1.21-5.1-1.33-6.11a4.43,4.43,0,0,0,2.3,3.21,7.38,7.38,0,0,0,4,.8c9.09-.42,7.38-11.45,2.8-16.12a8.14,8.14,0,0,0-6.82-2.54,9.91,9.91,0,0,0,7.79-5.88c2.65-6.31-1.7-11.59-7.53-13.43-3-.94-6.39-1.3-9,.37.28-3.38-2.69-6.09-5.55-7.91-12.66-8.06-37.44-13.56-48.47.41C887,70,883,67,880.41,68.3s-3.51,4.48-4,7.33c-2.53,13.89-1.31,29.5-1.38,43.65,0,2.5.11,5,.21,7.5,0,0,.14,0,.33.08a2.67,2.67,0,0,1,2.72,0c1.33.4,1.65,2.29,1.75,4a32,32,0,0,1,.22,3.44c.14,1.49.27,3,.4,4.46q1.36-7.53,2.72-15.05c1.53-8.52,1.3-16.46,5.26-24.44.37-.76,1-1.62,1.81-1.55a2.16,2.16,0,0,1,1.2.65c3.46,3,6.66,6.52,10.56,9,2.79,1.74,7.08,3.64,10.24,2.09a6.55,6.55,0,0,0,3.36-7.27,30.27,30.27,0,0,0,3.56,8,10.69,10.69,0,0,0,7.09,4.74c2.91.37,6.14-1.21,7.06-4a25.43,25.43,0,0,0,.56-4.19,7.38,7.38,0,0,0,1.48,2.51,2.55,2.55,0,0,0,2.68.71c.49,4.17.67,8.33,1.08,12.5.57,5.89,1.74,11.75,2.63,17.6.32-2.54.63-5.07.94-7.61a7.72,7.72,0,0,1,1.07-3.63,3,3,0,0,1,2.37-1.28C948.43,127.5,948,123.4,947.2,119.56Z" transform="translate(7.29 -0.47)"/><path class="cls-57" d="M912.06,153.2c-1.45-.5-3-1.09-3.82-2.39a6.71,6.71,0,0,1-.52-4.24q.75-8.23,1.52-16.49" transform="translate(7.29 -0.47)"/><path class="cls-15" d="M895.11,138.11c-3.78-.43-3.12-6.3.66-5.87s3.12,6.3-.66,5.87Z" transform="translate(7.29 -0.47)"/><path class="cls-15" d="M884.49,126.48a27.84,27.84,0,0,1,8.25-1.81c3,0,5.48.89,8.24,1.84.95.32,1.45-1.05.66-1.56-4.95-3.22-12.89-3.16-17.61.45-.48.37-.24,1.31.46,1.08Z" transform="translate(7.29 -0.47)"/><path class="cls-15" d="M926.8,138.2c3.78-.4,3.15-6.27-.63-5.87s-3.16,6.28.63,5.87Z" transform="translate(7.29 -0.47)"/><path class="cls-15" d="M938,125.55c-4.7-3.63-12.64-3.74-17.61-.55-.78.5-.31,1.89.65,1.57,2.78-.94,5.25-1.87,8.25-1.79a29.16,29.16,0,0,1,8.24,1.86c.7.22,1-.71.47-1.09Z" transform="translate(7.29 -0.47)"/><path class="cls-8" d="M915.1,162.46A49.38,49.38,0,0,0,922,161a4.56,4.56,0,0,0,.12-2.06,1.54,1.54,0,0,0-.84-1.07,3.56,3.56,0,0,0-1.67-.24,95.38,95.38,0,0,1-18.35-.5,1.31,1.31,0,0,0-1.24.35c-.59.75-.42,2,0,3.24A30.1,30.1,0,0,0,915.1,162.46Z" transform="translate(7.29 -0.47)"/><path class="cls-15" d="M915.1,162.46A30.1,30.1,0,0,1,900,160.71a14.62,14.62,0,0,0,1.39,2.9c4.32,6.82,15,6.23,19.49-.13A7.67,7.67,0,0,0,922,161,49.38,49.38,0,0,1,915.1,162.46Z" transform="translate(7.29 -0.47)"/><path class="cls-8" d="M943.91,116.73h0a2.52,2.52,0,0,0-2.56,2.48l-.48,34a2.52,2.52,0,0,0,2.49,2.56h0a9.68,9.68,0,0,0,9.82-9.55l.28-19.64A9.68,9.68,0,0,0,943.91,116.73Z" transform="translate(7.29 -0.47)"/><path class="cls-33" d="M945,116.81a9.85,9.85,0,0,1,3.57,1.19l-.52,36.6a9.74,9.74,0,0,1-3.59,1.08Z" transform="translate(7.29 -0.47)"/><path class="cls-8" d="M939.06,80.1a13.19,13.19,0,0,1,5.48-1.36c-10.12-13.51-27.76-19-43.78-12.58-20.3,8.19-29.21,29.34-28.26,50.08.16,3.33,5.36,3.37,5.2,0-.74-16.06,4.4-33,18.72-42C910.41,65.42,928.49,67.74,939.06,80.1Z" transform="translate(7.29 -0.47)"/><path class="cls-8" d="M877,115.21h0a2.52,2.52,0,0,1,2.61,2.43l1.19,34a2.53,2.53,0,0,1-2.44,2.61h0a9.69,9.69,0,0,1-10-9.34l-.68-19.63A9.68,9.68,0,0,1,877,115.21Z" transform="translate(7.29 -0.47)"/><path class="cls-33" d="M875.9,115.32a9.55,9.55,0,0,0-3.54,1.26l1.28,36.57a9.45,9.45,0,0,0,3.62,1Z" transform="translate(7.29 -0.47)"/><path class="cls-57" d="M990,338.71c2.68-9.84,6.15-23.8,13.21-47.41,4.41-14.76,6.12-53.88,8.59-69.54.39-2.44.77-4.87,1.14-7.31a17.45,17.45,0,0,1,1.1-4.53,35.71,35.71,0,0,1,2.57-4.15c2.32-3.76,1.77-7.89,3.38-11.66a29.68,29.68,0,0,1,5.83-9c3.78-4,6.59-7.41,4.49-8.57s-8.7,7.59-14.39,13a108.18,108.18,0,0,1,5.6-12.27c2.88-5.9,5.67-10.66,2.76-10.77S1017,176,1010.4,186.39l-.43-.22c.27-1.47,3.21-11.79,3.87-14.12,1.15-4.05,2.58-7.66,2.59-9.41s-1.74-4.68-4.36.37c-2.27,6.51-7.46,21.57-7.6,20.73H1004c-1.33-11.69,2.17-19.84-.87-21.37s-3.15,8.65-3.51,13.85c-.27,3.74-2.47,11.69-5.38,14.43a3.62,3.62,0,0,1-3.09.44,3.4,3.4,0,0,1-.87-.28c-1.41-.64-2.64-5.68-5.14-7.9s-4.25.84-4.25.84,4.45,7.3,5.55,13.57,6,8.34,7.21,11.51c.64,1.59-.06,7.08-.06,7.08-1.71,12-11.88,59.43-16.7,77.87" transform="translate(7.29 -0.47)"/><path class="cls-14" d="M1003.47,199c-2.88-5.59-10.83-7.28-11.81-7.47a4.43,4.43,0,0,0,3.49-1.41C1003,192.54,1003.47,199,1003.47,199Z" transform="translate(7.29 -0.47)"/></g><circle class="cls-62" cx="1047.17" cy="55.56" r="55.09" transform="translate(759.79 1061.48) rotate(-76.72)"/><path class="cls-63" d="M1046.05,58.69l-.12-.8c.11-1.61-.12-3.27.7-4.77l.78.67c1.73,1.43.28,3.28.67,4.89l-.67,0Z" transform="translate(7.29 -0.47)"/><path class="cls-64" d="M1048.4,54.64c-.36.9-.73,1.79-1.09,2.69-.48-.94-3.1-1.89,0-2.84Z" transform="translate(7.29 -0.47)"/><path class="cls-65" d="M1046.12,53.1l1.36,0c.23.7.45,1.4.67,2.1-.74.49,0,.93,0,1.39l-.72.73a1.36,1.36,0,0,0-.7,1.38C1045.39,57,1046.36,55,1046.12,53.1Z" transform="translate(7.29 -0.47)"/><path class="cls-66" d="M1038,56.18V89.93a.88.88,0,0,0,.88.88h12.53a.89.89,0,0,0,.88-.88V55.63h9.08a.87.87,0,0,0,.88-.8l.87-10.33a.88.88,0,0,0-.87-1h-10V36.21a3.11,3.11,0,0,1,3.11-3.11h7a.88.88,0,0,0,.88-.87V21.89a.89.89,0,0,0-.88-.88h-11.83A12.57,12.57,0,0,0,1038,33.58v10h-6.27a.87.87,0,0,0-.87.87V54.76a.87.87,0,0,0,.87.87H1038Z" transform="translate(7.29 -0.47)"/><circle class="cls-67" cx="559.81" cy="56.29" r="55.09" transform="translate(131.45 411.87) rotate(-45)"/><path class="cls-8" d="M594.67,47.46a15,15,0,0,0-14.95-15H541a15,15,0,0,0-15,15V65.63a15,15,0,0,0,15,15h38.77a15,15,0,0,0,14.95-15Zm-24.46,10-15.47,8.48c-.67.37-1.27-.12-1.27-.88V47.65c0-.78.62-1.26,1.29-.88l15.57,8.93A1,1,0,0,1,570.21,57.46Z" transform="translate(7.29 -0.47)"/></g></g></svg>