<svg xmlns="http://www.w3.org/2000/svg" xmlns:xlink="http://www.w3.org/1999/xlink" viewBox="0 0 564.19 841.88"><defs><style>.cls-1,.cls-16,.cls-29,.cls-35,.cls-36,.cls-6,.cls-60,.cls-66{fill:none;}.cls-2{isolation:isolate;}.cls-3{fill:#00acee;}.cls-4{fill:#277ecf;}.cls-27,.cls-37,.cls-5,.cls-64{mix-blend-mode:multiply;}.cls-6{stroke:#e6e6e6;stroke-width:2.45px;}.cls-16,.cls-35,.cls-36,.cls-6,.cls-60,.cls-66{stroke-miterlimit:10;}.cls-7{fill:#63a5ff;}.cls-8{fill:#c3dffe;}.cls-42,.cls-54,.cls-9{fill:#fff;}.cls-10,.cls-12,.cls-13,.cls-26,.cls-27,.cls-28,.cls-39,.cls-48,.cls-49{fill:#ff9b73;}.cls-10,.cls-12,.cls-26,.cls-28,.cls-29,.cls-39,.cls-48,.cls-49{stroke:#ef714b;stroke-linejoin:round;}.cls-10,.cls-12,.cls-26,.cls-28,.cls-29,.cls-35,.cls-39,.cls-48,.cls-49{stroke-linecap:round;}.cls-10{stroke-width:1.34px;}.cls-11{fill:#0b5ac4;}.cls-12{stroke-width:1.01px;}.cls-14{fill:#ef714b;}.cls-15,.cls-37{fill:#2d3644;}.cls-16{stroke:#2d3644;stroke-width:2.87px;}.cls-17{fill:#627193;}.cls-18{fill:#e6e6e6;}.cls-19{fill:#172d49;}.cls-20{fill:#7a8ba1;}.cls-21{fill:#1e2735;}.cls-22{fill:#28477a;}.cls-23{fill:#5f7ba3;}.cls-24{fill:#d4ddff;}.cls-25{fill:#0f81ff;}.cls-26{stroke-width:1.46px;}.cls-27{opacity:0.5;}.cls-28,.cls-29{stroke-width:1.51px;}.cls-30{fill:#e8e8e8;}.cls-31{fill:#7c83a0;}.cls-32{fill:#586377;}.cls-33{fill:#268eff;}.cls-34{fill:#282c36;}.cls-35,.cls-36,.cls-66{stroke:#fff;}.cls-35{stroke-width:4.31px;}.cls-36{stroke-width:0.72px;}.cls-38{fill:#001940;}.cls-39{stroke-width:1.46px;}.cls-40{fill:#2696ff;}.cls-41{fill:#96bcfe;}.cls-42{font-size:39.21px;font-family:Metropolis-Bold, Metropolis;font-weight:700;}.cls-43{fill:#f8f2ed;}.cls-44{fill:#bdbdbd;}.cls-45,.cls-57{fill:#878a8c;}.cls-46{fill:#5f6a82;}.cls-47{clip-path:url(#clip-path);}.cls-48{stroke-width:1.6px;}.cls-49{stroke-width:0.79px;}.cls-50{fill:#3c5a99;}.cls-51{fill:#a2b1ce;}.cls-52{fill:#e8ecf3;}.cls-53{fill:#a7b5d1;}.cls-54,.cls-56,.cls-57{fill-rule:evenodd;}.cls-55,.cls-56{fill:#0072ff;}.cls-58{fill:#d8d8d8;}.cls-59{fill:#161616;opacity:0.68;}.cls-60{stroke:#bdbdbd;stroke-width:1.25px;}.cls-61{fill:#ff3434;}.cls-62{fill:#fffffd;}.cls-63{fill:#2893ff;}.cls-64{fill:#dbdbdb;}.cls-65{clip-path:url(#clip-path-2);}.cls-66{stroke-width:1.61px;}.cls-67{fill:red;}</style><clipPath id="clip-path" transform="translate(76.47 -1.4)"><rect class="cls-1" x="248.07" y="29.84" width="180.95" height="218.97" transform="matrix(1, 0, 0, 1, 0.41, -0.99)"/></clipPath><clipPath id="clip-path-2" transform="translate(76.47 -1.4)"><rect class="cls-1" x="90.67" y="37.97" width="110.08" height="133.21" transform="matrix(1, 0, 0, 1, 0.31, -0.43)"/></clipPath></defs><g class="cls-2"><g id="OBJECTS"><path class="cls-3" d="M-76.45,262Z" transform="translate(76.47 -1.4)"/><rect class="cls-4" x="170.06" y="815.1" width="331.9" height="26.78" rx="13.39"/><g class="cls-5"><rect class="cls-6" x="93.65" y="707.42" width="54.84" height="27.42"/><polyline class="cls-6" points="121.05 679.39 121.05 706.81 66.21 706.81"/><polyline class="cls-6" points="175.92 706.81 121.08 706.81 121.08 679.39"/><polyline class="cls-6" points="66.21 735.07 121.05 735.07 121.05 762.49"/><polyline class="cls-6" points="121.08 762.49 121.08 735.07 175.92 735.07"/></g><g class="cls-5"><rect class="cls-6" x="481.92" y="627.65" width="54.84" height="27.42"/><polyline class="cls-6" points="509.32 599.62 509.32 627.04 454.48 627.04"/><polyline class="cls-6" points="564.19 627.04 509.35 627.04 509.35 599.62"/><polyline class="cls-6" points="454.48 655.29 509.32 655.29 509.32 682.71"/><polyline class="cls-6" points="509.35 682.71 509.35 655.29 564.19 655.29"/></g><rect class="cls-7" x="14.34" y="405.84" width="291.67" height="196.9"/><rect class="cls-8" x="30.53" y="420.54" width="259.27" height="167.51"/><rect class="cls-7" x="153.16" y="408.86" width="14.01" height="191.91"/><rect class="cls-4" x="7.05" y="598.73" width="306.24" height="19.01"/><path class="cls-9" d="M169,462.56a8.92,8.92,0,0,0-2.68-3.08c-2.84-2-7.36-1.66-9.24,1.26-2.76-6.73-5.65-13.66-10.81-18.8s-13.22-8.08-19.9-5.18c-4.18,1.82-7.23,5.64-9,9.83s-2.3,8.61-3.29,13c-3-3.55-9.64-6.31-10.92.59a5.43,5.43,0,0,0,.08,2.38Z" transform="translate(76.47 -1.4)"/><path class="cls-9" d="M6.83,523.19H68.07c-.2-3.5-3.09-8.42-5.06-9.87a2.64,2.64,0,0,0-1.44-.61c-2.31,0-1.6,4.14-3.47,5.5-2.86-6.3-3.81-13.28-6-19.84-1.85-5.5-11.85-23.88-18.73-13.28-2.23,3.44-2.65,8.33-3.25,12.29-.69,4.63-3.13,17.28-.72,21.41a16.19,16.19,0,0,0-4.09-5.14,5.82,5.82,0,0,0-6.21-.71,3.9,3.9,0,0,0-1.69,4.18c-1.81-2.4-4.88-3.9-7.77-3.2-3.43.84-5.66,5.3-3.72,8.24A5.42,5.42,0,0,0,6.83,523.19Z" transform="translate(76.47 -1.4)"/><path class="cls-10" d="M201.68,580c9.56,7.51,23.56,18.25,30.42,22.47a6.21,6.21,0,0,1,3,5.37,11.59,11.59,0,0,1-2.91,7.62,6.22,6.22,0,0,1-7.9,1c-8-5.08-22.46-15.19-32.37-22.11a6.26,6.26,0,0,1-1.95-8.07c.71-1.36,1.51-2.85,2.3-4.31A6.27,6.27,0,0,1,201.68,580Z" transform="translate(76.47 -1.4)"/><path class="cls-11" d="M202.15,576.23q-8.11-5.81-16.68-11a135.38,135.38,0,0,0-12.31-6.92,9.93,9.93,0,0,0-10.6,1c-2.66,2-5.38,5.32-5.69,8.76a10.11,10.11,0,0,0,1.94,6.36c5.42,8.16,13.95,14.31,22,19.7,2.3,1.54,4.88,4.11,7.71,2.55,3-1.67,5.61-5,7.51-7.78C196.75,587.82,203.14,576.94,202.15,576.23Z" transform="translate(76.47 -1.4)"/><path class="cls-12" d="M220.59,598.57l6.73-29.31c.9-4,1.09-8.23-.78-12-2-4.15-5.27-7.8-6.2-12.44-.77-3.89.25-7.91,1.68-11.6a1.14,1.14,0,0,1,.54-.72c.35-.15,1.08-.09,1.26.25a2.27,2.27,0,0,1,.2,1.1c0,2-.7,4.07-.83,6.05-.1,1.37-.28,3.72,1.25,4.56a48.72,48.72,0,0,1,1.86-12.92c.19-.64.5-1.37,1.15-1.52a1.35,1.35,0,0,1,1.44,1.12,4.21,4.21,0,0,1-.21,2,28.73,28.73,0,0,0-.53,11.42,24.64,24.64,0,0,1,.22-9.79,5,5,0,0,1,.86-2.09c.48-.59.67-1,1.4-.79s.84,1,.75,1.8a25.25,25.25,0,0,1-.83,2.94c-.6,2.83,0,4.48.62,7.31a18.41,18.41,0,0,1-.18-5.15c.08-.87,1.45-3.85,2.3-3.51s.35,1.9.21,2.68a15.9,15.9,0,0,0,.55,6.32c.6,2.64,3.73,6.41,4.53,9a14.69,14.69,0,0,1,.49,6.22,49.61,49.61,0,0,0-.15,7.12c.11,5.5.3,9.1.11,14.6q-.42,11.69-1.76,23.32c-.32,2.77,0,7.14-1.89,9.32A9.94,9.94,0,0,1,227,617a9.51,9.51,0,0,1-3.37-1.07" transform="translate(76.47 -1.4)"/><path class="cls-13" d="M227.07,549.11a4.94,4.94,0,0,1,4.51,5.78" transform="translate(76.47 -1.4)"/><path class="cls-14" d="M227.07,549.12a1,1,0,0,1,.25.08c.09,0,.08,0,.13.11a1.2,1.2,0,0,0,.34.23c.26.16.54.3.81.46a5.89,5.89,0,0,1,1.48,1.15,4.19,4.19,0,0,1,.88,1.65,6.33,6.33,0,0,1,.14,2,.5.5,0,0,0,1,.14,4.61,4.61,0,0,0-.12-2.36,5.45,5.45,0,0,0-1.1-2.07,4.81,4.81,0,0,0-1.77-1.33,2.94,2.94,0,0,0-1.05-.25,1,1,0,0,0-.51.07c-.06,0-.07.07-.14.09s-.22,0-.32,0,0,0,0,0Z" transform="translate(76.47 -1.4)"/><path class="cls-13" d="M226,556.74a24.32,24.32,0,0,0-9.32-7.9c-.76-.36-2.85-1.27-2.78-2.11,0-.48,1.17-.5,1.63-.68a5.62,5.62,0,0,1,1.88-.14,16.59,16.59,0,0,1,7.16,2.1" transform="translate(76.47 -1.4)"/><path class="cls-14" d="M226,556.74c-.51-.76-.88-1.58-1.43-2.31a16.87,16.87,0,0,0-1.83-2,22,22,0,0,0-4.42-3.26c-.66-.37-1.33-.69-2-1a6.32,6.32,0,0,1-1.7-1,2.69,2.69,0,0,1-.2-.27c0-.06-.12.12,0,.06a.76.76,0,0,1,.16-.06,8.14,8.14,0,0,0,.95-.22,6.3,6.3,0,0,1,2.21-.15,16.84,16.84,0,0,1,3.45.67c1.12.35,2.17,1,3.3,1.25a.35.35,0,0,0,.34-.58,7.24,7.24,0,0,0-2.86-1.48,17.82,17.82,0,0,0-3.38-.78,9.39,9.39,0,0,0-2.85,0,5.27,5.27,0,0,0-2,.6c-1.4,1,1,2.43,1.79,2.8a32.8,32.8,0,0,1,5,2.9,30.41,30.41,0,0,1,2.76,2.31c.44.4.86.81,1.28,1.22a15.06,15.06,0,0,1,1.43,1.45Z" transform="translate(76.47 -1.4)"/><path class="cls-15" d="M291.2,664.09H271.55a4.82,4.82,0,0,1,4.82-4.82h10a4.82,4.82,0,0,1,4.82,4.82Z" transform="translate(76.47 -1.4)"/><polyline class="cls-16" points="357.14 661.22 375.1 588.46 335.49 540.1"/><rect class="cls-15" x="263.48" y="529.23" width="4.97" height="26.44" transform="translate(-190.15 826.26) rotate(-92.05)"/><path class="cls-17" d="M249.54,537.15a5.88,5.88,0,1,1-5.67,6.09A5.88,5.88,0,0,1,249.54,537.15Z" transform="translate(76.47 -1.4)"/><path class="cls-15" d="M251.73,537.49a5.84,5.84,0,0,0-3.71-.08l.41,11.35a5.93,5.93,0,0,0,1.53.15,5.74,5.74,0,0,0,2.16-.5Z" transform="translate(76.47 -1.4)"/><path class="cls-18" d="M170.91,520.56c.73,6.86,5.09,12,9.74,11.54s7.84-6.47,7.11-13.34-5.1-12-9.75-11.54S170.18,513.69,170.91,520.56Z" transform="translate(76.47 -1.4)"/><ellipse class="cls-19" cx="178.21" cy="519.78" rx="8.47" ry="12.51" transform="translate(22.51 20.36) rotate(-6.07)"/><ellipse class="cls-9" cx="177.27" cy="520.23" rx="8.47" ry="12.51" transform="translate(22.46 20.26) rotate(-6.07)"/><rect class="cls-20" x="89.89" y="544.77" width="5.75" height="48.55" transform="translate(-83.02 49.2) rotate(-16.69)"/><path class="cls-21" d="M156.87,722c2.87-2.79,1.78-5.61.56-8.09-4.8-9.78-12.21-18-18.05-27.21-12.2-19.23-15.52-41.69-13.59-64,.87-10.07,1.08-21.43-6.58-29.07-5.58-5.58-12.84-10-16-17.61-1.36-3.27-3.3-7.4-7.58-6.59-2,.37-12.94,6.45-13.88,8a11.44,11.44,0,0,0-1.12,8.3c5.93,26.63,26.46,117,26.46,117l11.66,16.76a33.07,33.07,0,0,0,3.67,4.53c4.84,4.26,22.81,1.19,29,.46A9.36,9.36,0,0,0,156.87,722Z" transform="translate(76.47 -1.4)"/><path class="cls-22" d="M314.23,793.79l6.21,16.63,50.6-18.9h0a9.47,9.47,0,0,0-10.73-6,38.61,38.61,0,0,1-33.79-8.88Z" transform="translate(76.47 -1.4)"/><path class="cls-23" d="M172,731l78.61,19,65.55,47.11a33.42,33.42,0,0,0,14.56-21.8l-65.91-58.21-80.38-16.58Z" transform="translate(76.47 -1.4)"/><path class="cls-23" d="M295.86,807.2l-1.45,17.69,53.83,4.42h0a9.47,9.47,0,0,0-7.17-10,38.57,38.57,0,0,1-26.8-22.41Z" transform="translate(76.47 -1.4)"/><path class="cls-24" d="M194.43,681.54l-61.33,2.9,2.34,14.91A35.74,35.74,0,0,0,151.37,724c7.09,4.53,16.51,8.22,27.38,6.76,24.35-3.27,80.74-13.44,80.74-13.44l29.62,90.58c11.27-.52,21.66-3.6,30.68-10.69L287.38,694.3a16.83,16.83,0,0,0-14.67-11.72Z" transform="translate(76.47 -1.4)"/><path class="cls-25" d="M143.41,552.21l.19-.11c2.21-1.26,5-1.15,7.5-1.05a40.61,40.61,0,0,1,25,10.35,48.41,48.41,0,0,1,9.11,11.21c2.72,4.44,2.61,10.6,3.13,15.84,2.9,29.16,4.32,59.14,9.91,87.62.3,1.5.49,3.22.94,4.67.85,2.65,2.37,5.13,3.29,7.8-9.82,8.41-27.17,11.68-39.46,9.52a132.67,132.67,0,0,1-17.24-4.35c-7.77-2.49-15.52-5.37-22.37-9.82C127,670.34,132,656.33,133.15,643c.35-4-1-8.6-1.64-12.66-1.66-9.8-3.73-19.49-6-29.07-1.14-4.8-2.17-10.75-3.35-15.51-1-3.91-3.71-10.08-2.26-14a14.55,14.55,0,0,1,4-5.26,102,102,0,0,1,13-10C139,555.08,141.22,553.45,143.41,552.21Z" transform="translate(76.47 -1.4)"/><path class="cls-11" d="M123.41,683.89a82,82,0,0,0,17.88,8.32A58.27,58.27,0,0,1,139,684c-2.86-14,0-27.06,3.3-40.53q4.18,8.38,9.14,16.37a2.75,2.75,0,0,0,2.35,1.58c8.78,1.83,17.63,3.53,26.61,3.94,1.42.06,15.77-1.18,16,.31-.79-4.86-1.51-9.74-2.12-14.66-4.19-.18-8.39-.34-12.57-.63-6.48-.45-16.42-.57-21.09-5.85-2.41-2.72-3.37-6.53-4.56-9.86-1.58-4.47-3.53-8.81-5.25-13.22-3.7-9.45-7.2-19-10.93-28.41-2.36-6-4.62-12-7-18-1.5-3.75-4.22-9.88-8.24-9.32l-.75.68a14.55,14.55,0,0,0-4,5.26c-1.45,3.91,1.29,10.08,2.26,14,1.18,4.76,2.21,10.71,3.35,15.51,2.28,9.58,4.35,19.27,6,29.07.69,4.06,2,8.69,1.64,12.66C132,656.33,127,670.34,123.41,683.89Z" transform="translate(76.47 -1.4)"/><path class="cls-26" d="M161.33,527.41c-3.63-1.85-18.49-5.42-19.65.91-.56,3.07,1,6.75,1.95,9.63A19.08,19.08,0,0,1,143.9,549a16.35,16.35,0,0,1-3.66,6.45c6.1,3.2,11.4,8,17.11,11.8,1.47,1,4,3.33,5.81,3.41,5.06.24,5-4.61,5.37-7.63.21-1.76.34-3.45.68-5.09a6.47,6.47,0,0,1-.73-.75c-1.89-2.28-2.29-4.74-2.53-7.59s-.79-5.7-.77-8.63a42.83,42.83,0,0,1,.3-4.81c.07-.61,1.1-4.44.84-4.75A16.6,16.6,0,0,0,161.33,527.41Z" transform="translate(76.47 -1.4)"/><path class="cls-27" d="M144.18,526.25a3,3,0,0,0-1.78,2.2,7.75,7.75,0,0,0,0,2.26,1.89,1.89,0,0,1,.73.84,56.8,56.8,0,0,0,25.17,27.77c0-.36.08-.74.15-1.11a6.38,6.38,0,0,1-.51-.53c-2.06-2.51-2.45-5.22-2.68-8-.09-1-.21-2-.33-3a37.86,37.86,0,0,1-.15-10.58c0-.2.15-.73.3-1.37.18-.81.55-2.42.59-3a16.11,16.11,0,0,0-4.64-3.7C158,526.53,148.31,524.21,144.18,526.25Z" transform="translate(76.47 -1.4)"/><path class="cls-28" d="M130.35,508.46c-.38,7.71,2.46,14.53,6.9,20.67,4.87,6.71,10,12.85,17.12,17.31,3.34,2.09,7.07,4.26,11.11,4.67a11,11,0,0,0,9.56-4.19c2.42-2.9,3.2-6.8,4.17-10.38,1.1-4,2.45-8.47,2.76-12.65.16-2-.87-3.33-1.34-5.23a14.36,14.36,0,0,1,.11-4.8,30.33,30.33,0,0,0-.82-10.26,58,58,0,0,0-2.77-9c-2.72-6.16-10.05-10.54-16.43-11.68a25.65,25.65,0,0,0-20.92,5.87A28.07,28.07,0,0,0,130.35,508.46Z" transform="translate(76.47 -1.4)"/><path class="cls-14" d="M174.46,531.46a6.08,6.08,0,0,1-2.05,1.46.63.63,0,0,1-.55-1.14c.94-.47,1.82-1,1.94-1.78a3.26,3.26,0,0,0-.91-2l-.14-.18a14.65,14.65,0,0,1-2.71-7.56.64.64,0,0,1,1.27-.08,13.33,13.33,0,0,0,2.47,6.9l.13.17a4.23,4.23,0,0,1,1.14,3A2.52,2.52,0,0,1,174.46,531.46Z" transform="translate(76.47 -1.4)"/><path class="cls-9" d="M170.91,537.5a25.36,25.36,0,0,0,3.56-.77,2.41,2.41,0,0,0,.06-1.06.78.78,0,0,0-.43-.54,1.79,1.79,0,0,0-.87-.13,49,49,0,0,1-9.45-.23.67.67,0,0,0-.63.18,1.84,1.84,0,0,0,0,1.67A15.4,15.4,0,0,0,170.91,537.5Z" transform="translate(76.47 -1.4)"/><path class="cls-15" d="M170.91,537.5a15.4,15.4,0,0,1-7.76-.88,7.27,7.27,0,0,0,.72,1.5c2.23,3.5,7.75,3.18,10-.1a4.11,4.11,0,0,0,.57-1.29A25.36,25.36,0,0,1,170.91,537.5Z" transform="translate(76.47 -1.4)"/><path class="cls-15" d="M153.18,516.48a23.56,23.56,0,0,1,4.72-2.2,16.19,16.19,0,0,1,5.64,0,.42.42,0,0,0,.23-.79c-3.24-1.69-9-.59-10.92,2.65-.11.19.14.45.33.35Z" transform="translate(76.47 -1.4)"/><path class="cls-15" d="M161.61,523.71c2.61-.56,1.73-4.62-.88-4.05s-1.73,4.62.88,4.05Z" transform="translate(76.47 -1.4)"/><path class="cls-15" d="M177.88,522.9c2.64-.42,2-4.52-.65-4.1s-2,4.53.65,4.1Z" transform="translate(76.47 -1.4)"/><path class="cls-15" d="M173.1,514.79a12.8,12.8,0,0,1,4.17-1.25c1.37-.1,2.59.54,3.91.42a.37.37,0,0,0,.26-.57c-1.92-2.44-6.91-.88-8.44,1.26-.05.07,0,.18.1.14Z" transform="translate(76.47 -1.4)"/><path class="cls-15" d="M136.15,526c1.75-1.38,4.52-2.52,5.48-2.43,2.41.24,3.38,3,6.21,1.92a79.1,79.1,0,0,0-1.3-10.49c-.69-4.32-1.92-5.52,3.26-6.6a33.42,33.42,0,0,1-.72-12,20.85,20.85,0,0,0,11.4,11.17,3.1,3.1,0,0,0,2.85.1,2.67,2.67,0,0,0,.75-2.66,11.57,11.57,0,0,0-1.92-4.84c4.44,5.81,12.06,12,19.9,9.95a4.71,4.71,0,0,0,2.09-1.05c2.33-2.31-1.22-6.81-3-8.34,2.7,2.34,5.65,4.8,9.21,5.09a2.61,2.61,0,0,0,3.11-3.35,8.22,8.22,0,0,0-5.26-6.62c3.73-1.9,4.65-7.22,1.31-9.8a19,19,0,0,0-5.3-2.73c-.53-.18-6.65-1-6.58-.57-.83-4.95-5.43-8.66-10.46-10.06-8.78-2.46-17.94.21-26.12,3.57-4.7,1.93-9.88,5-10.45,9.79-1-1.68-3.82-1.63-5.36-.31a7.33,7.33,0,0,0-2.14,5.37c-.17,3.69.85,7.31,1.93,10.83a274.34,274.34,0,0,0,9.67,26.6C134.4,527.72,135.09,526.79,136.15,526Z" transform="translate(76.47 -1.4)"/><path class="cls-28" d="M144.27,525.31a9,9,0,0,0-5.46-4.4c-3.95-1-5.51,3-4.43,6.19,1.42,4.15,5.45,9.28,10.42,8" transform="translate(76.47 -1.4)"/><path class="cls-29" d="M137.6,526.55a1.49,1.49,0,0,1,.6-2.27c2-.54,3.54,2.4,3.94,4-1-.1-1.32,1.06-.86,1.78a2.77,2.77,0,0,0,2.28,1.11" transform="translate(76.47 -1.4)"/><path class="cls-30" d="M349.37,664.09H279.44a4.82,4.82,0,0,1,4.82-4.82h60.29a4.82,4.82,0,0,1,4.82,4.82Z" transform="translate(76.47 -1.4)"/><rect class="cls-20" x="81.03" y="549.65" width="5.75" height="48.55" transform="matrix(0.96, -0.29, 0.29, 0.96, -84.79, 46.86)"/><path class="cls-15" d="M145.4,729.18c2.87-2.8,1.78-5.62.56-8.1-4.81-9.78-12.21-18-18.05-27.21-12.21-19.22-15.53-41.69-13.59-64,.87-10.07,1.07-21.43-6.59-29.07-5.58-5.58-12.83-10-16-17.6-1.36-3.27-3.3-7.41-7.57-6.6a6.26,6.26,0,0,0-4.26,3.19,11.45,11.45,0,0,0-1.12,8.3c5.93,26.64,27.36,119,27.36,119l11.66,16.76a33.07,33.07,0,0,0,3.67,4.53c4.85,4.26,12.28,4,18.44,3.3A9.35,9.35,0,0,0,145.4,729.18Z" transform="translate(76.47 -1.4)"/><path class="cls-25" d="M134.47,710.36a111,111,0,0,1-8.62-11.49,106.09,106.09,0,0,1-15-41.9,116.11,116.11,0,0,1-.92-22.58c.07-1.21.16-2.42.24-3.64.43-5.9.87-12-.74-17.87a21.81,21.81,0,0,0-3.9-7.88,55,55,0,0,0-5.41-5.59c-1.35-1.27-2.74-2.58-4-3.95a50.85,50.85,0,0,1-6.26-9.18c-.3-.55-.61-1.15-.93-1.78-1.29-2.56-2.76-5.46-5.35-6.62a5.44,5.44,0,0,0-1.55-.4,6.83,6.83,0,0,0-1.5,1.44,4.11,4.11,0,0,1,2.47.28c2.12.94,3.47,3.6,4.65,5.95.33.65.65,1.27,1,1.83A52.21,52.21,0,0,0,95,596.42c1.29,1.42,2.71,2.75,4.08,4a53,53,0,0,1,5.26,5.44,20,20,0,0,1,3.64,7.36c1.55,5.63,1.12,11.61.7,17.39-.09,1.22-.17,2.44-.24,3.65a117.48,117.48,0,0,0,.92,22.87,107.61,107.61,0,0,0,15.25,42.47,113.47,113.47,0,0,0,8.72,11.64,47.45,47.45,0,0,0,5.93,6.24.7.7,0,0,0,.46.16.72.72,0,0,0,.46-1.27A45.26,45.26,0,0,1,134.47,710.36Z" transform="translate(76.47 -1.4)"/><path class="cls-21" d="M97.1,547.75c-1.79-6.86-5.71-13.57-11.74-15a5.82,5.82,0,0,0-3.6.12c-1.56.64-11.31,5-11.31,5L81.18,572s10.45-5.18,11.95-5.88a8.44,8.44,0,0,0,3.94-3.93C99.17,557.88,98.26,552.18,97.1,547.75Z" transform="translate(76.47 -1.4)"/><path class="cls-15" d="M85.58,553.63c-1.59-7.1-5.31-14.08-11.31-15.87-13.61-4-6.25,30.6,1.54,34.46,3.52,1.75,7.49-.41,9.22-3.65C87.35,564.21,86.61,558.25,85.58,553.63Z" transform="translate(76.47 -1.4)"/><path class="cls-25" d="M88,555.82l7.82-3.27a16.43,16.43,0,0,0-.29-2.57l-8,3.33C87.75,554.21,87.9,555.06,88,555.82Z" transform="translate(76.47 -1.4)"/><path class="cls-25" d="M91.53,540.87l-7.69,3.21a16.12,16.12,0,0,1,1.35,2.14L92.9,543A18.56,18.56,0,0,0,91.53,540.87Z" transform="translate(76.47 -1.4)"/><path class="cls-25" d="M87,550.86l7.93-3.32c-.27-.83-.57-1.61-.88-2.32l-7.83,3.27Q86.65,549.67,87,550.86Z" transform="translate(76.47 -1.4)"/><path class="cls-25" d="M91.41,540.71l-7.68,3.21.11.16,7.69-3.21Z" transform="translate(76.47 -1.4)"/><rect class="cls-31" x="141.23" y="672.36" width="5.75" height="48.55" transform="translate(-117.49 69.32) rotate(-16.69)"/><rect class="cls-31" x="167.45" y="698.69" width="48.55" height="5.75" transform="translate(-458.88 682.42) rotate(-73.32)"/><path class="cls-32" d="M145.14,690.07l-5.25-17.51-5.51,1.65,5,16.77Q142.26,690.43,145.14,690.07Z" transform="translate(76.47 -1.4)"/><path class="cls-32" d="M195.23,699.88l6.22-20.75-5.5-1.65-6,20Q192.66,698.54,195.23,699.88Z" transform="translate(76.47 -1.4)"/><path class="cls-15" d="M135,683.64a125.38,125.38,0,0,1,65.49,10c4.24,1.92,9.27,1.21,11.79-3.09,2.17-3.7,1.17-9.86-3.09-11.8-23.28-10.55-48.71-15.12-74.19-12.34-4.62.51-8.62,3.6-8.62,8.62,0,4.27,4,9.13,8.62,8.62Z" transform="translate(76.47 -1.4)"/><rect class="cls-31" x="155.31" y="730.22" width="17.9" height="74.06" transform="translate(404.99 1533.12) rotate(180)"/><path class="cls-32" d="M173.22,745.93V730.22H155.31v12.62A170.57,170.57,0,0,1,173.22,745.93Z" transform="translate(76.47 -1.4)"/><path class="cls-15" d="M119.66,820q44.93-17.87,89.86,0V805.41c-26-10-54.29-14.31-89.86,0Z" transform="translate(76.47 -1.4)"/><circle class="cls-15" cx="284.56" cy="824.57" r="7.98"/><circle class="cls-15" cx="198.85" cy="824.57" r="7.98"/><path class="cls-15" d="M221.05,740.46s2.88-13.13-14.74-25c-4.32-2.9-9.79-4-14.93-5.31-20.32-5.38-42.65-8.39-62.12-1-3.44,1.3-7,3.13-8.49,6.24-2,4-1.28,12.39,3.25,14.89C129.78,733.45,221.05,740.46,221.05,740.46Z" transform="translate(76.47 -1.4)"/><path class="cls-25" d="M216.14,739.68a22.25,22.25,0,0,0-4-10c-6.86-9.71-25.1-17.38-43.38-18.23-27.37-1.27-41,5.2-43.11,9.58a13.81,13.81,0,0,0-.24,9.68c.48.12,1,.25,1.72.38-1.34-3-1.3-7.16-.19-9.43,1.47-3,12.27-8.93,35.13-8.93q3.15,0,6.62.16c17.59.81,35.76,8.39,42.28,17.62a20.68,20.68,0,0,1,3.79,9.3s0,.07,0,.11l1.45.12C216.15,739.84,216.14,739.69,216.14,739.68Z" transform="translate(76.47 -1.4)"/><path class="cls-9" d="M179.05,482.63c-2.84-4.71-6.17-8.6-11.26-10.94a22.21,22.21,0,0,0-20.1.1C132.39,479,128,499.36,131.58,514.9l4.2-1c-3.27-14.08,1-32.23,13.74-38.23a22.1,22.1,0,0,1,18.4-.08,25.11,25.11,0,0,1,8.61,6.76A15.29,15.29,0,0,1,179.05,482.63Z" transform="translate(76.47 -1.4)"/><path class="cls-9" d="M130.09,526.78c2,6.6,7.33,10.82,11.8,9.44s6.43-7.86,4.38-14.46-7.33-10.82-11.8-9.44S128,520.19,130.09,526.78Z" transform="translate(76.47 -1.4)"/><path class="cls-19" d="M128.28,527.35c2,6.59,7.33,10.82,11.8,9.43s6.43-7.86,4.38-14.46-7.33-10.82-11.8-9.43S126.23,520.75,128.28,527.35Z" transform="translate(76.47 -1.4)"/><path class="cls-18" d="M126.94,527.76c2.05,6.6,7.33,10.82,11.8,9.43s6.43-7.86,4.38-14.45-7.33-10.83-11.8-9.44S124.89,521.16,126.94,527.76Z" transform="translate(76.47 -1.4)"/><path class="cls-33" d="M127.74,527.51c1.58,5.1,5.66,8.36,9.12,7.29s5-6.07,3.38-11.17-5.66-8.36-9.12-7.29S126.15,522.41,127.74,527.51Z" transform="translate(76.47 -1.4)"/><path class="cls-9" d="M128.59,527.25c1.37,4.4,4.89,7.22,7.87,6.29s4.3-5.24,2.93-9.65-4.89-7.22-7.87-6.29S127.22,522.85,128.59,527.25Z" transform="translate(76.47 -1.4)"/><polygon class="cls-33" points="212.5 525.74 209.24 520.79 208.26 525.87 212.5 525.74"/><path class="cls-34" d="M443.46,478.6h5.4a3.61,3.61,0,0,1,3.61,3.61v147a3.89,3.89,0,0,1-3.89,3.89h-4.83a3.89,3.89,0,0,1-3.89-3.89v-147A3.61,3.61,0,0,1,443.46,478.6Z"/><path class="cls-35" d="M376.72,577.52v22.66l23.63,45.57a12,12,0,0,1-10.61,17.45h-27" transform="translate(76.47 -1.4)"/><path class="cls-9" d="M446.17,478.6h2.69a3.61,3.61,0,0,1,3.61,3.61v147a3.89,3.89,0,0,1-3.89,3.89h-2.41a0,0,0,0,1,0,0V478.6A0,0,0,0,1,446.17,478.6Z"/><path class="cls-9" d="M369.75,615h-6.36v15.63a3.89,3.89,0,0,0,3.89,3.89h2.47Z" transform="translate(76.47 -1.4)"/><path class="cls-9" d="M369.75,480H367a3.6,3.6,0,0,0-3.6,3.6v5.48h6.36Z" transform="translate(76.47 -1.4)"/><line class="cls-36" x1="446.21" y1="478.6" x2="446.21" y2="633.12"/><rect class="cls-17" x="220.34" y="664.43" width="193.2" height="6.57" transform="translate(710.34 1334.04) rotate(180)"/><polygon class="cls-17" points="424.03 830.39 364.65 830.39 364.65 804.9 369.03 796.28 364.65 796.28 364.65 764.78 369.65 756.42 364.65 756.42 364.65 714.1 369.04 709.4 364.65 709.4 364.65 687.16 369.04 681.08 364.65 681.08 364.65 669.55 424.03 669.55 424.03 830.39"/><rect class="cls-15" x="373.91" y="669.55" width="50.12" height="160.83"/><polygon class="cls-37" points="364.65 675.32 372.64 675.32 424.03 669.55 364.65 669.55 364.65 675.32"/><rect class="cls-15" x="364.65" y="701.11" width="15.2" height="2.85"/><rect class="cls-15" x="364.65" y="742.18" width="15.2" height="2.85"/><rect class="cls-15" x="364.65" y="783.25" width="15.2" height="2.85"/><path class="cls-15" d="M291.47,711.45h-3.73a1.43,1.43,0,0,1-1.43-1.43h0a1.43,1.43,0,0,1,1.43-1.42h3.73a1.42,1.42,0,0,1,1.42,1.42h0A1.42,1.42,0,0,1,291.47,711.45Z" transform="translate(76.47 -1.4)"/><path class="cls-15" d="M291.47,759.09h-3.73a1.43,1.43,0,0,1-1.43-1.42h0a1.43,1.43,0,0,1,1.43-1.43h3.73a1.42,1.42,0,0,1,1.42,1.43h0A1.42,1.42,0,0,1,291.47,759.09Z" transform="translate(76.47 -1.4)"/><path class="cls-15" d="M291.47,799.59h-3.73a1.43,1.43,0,0,1-1.43-1.42h0a1.43,1.43,0,0,1,1.43-1.43h3.73a1.42,1.42,0,0,1,1.42,1.43h0A1.42,1.42,0,0,1,291.47,799.59Z" transform="translate(76.47 -1.4)"/><path class="cls-15" d="M291.47,684.25h-3.73a1.43,1.43,0,0,1-1.43-1.43h0a1.42,1.42,0,0,1,1.43-1.42h3.73a1.41,1.41,0,0,1,1.42,1.42h0A1.42,1.42,0,0,1,291.47,684.25Z" transform="translate(76.47 -1.4)"/><path class="cls-38" d="M215.14,664.48s-.47-13.3,17.06-13.3,19.27,10.83,19.27,13.3C251.47,664.48,214.39,663.73,215.14,664.48Z" transform="translate(76.47 -1.4)"/><path class="cls-39" d="M131.38,605.09c6.59,11.94,28.36,39.75,31.73,43.14,2.14,2,14.17,5,21.94,4.79,21.1-.61,38.53-2.89,38.53-2.89l2.73-10s-42.72-3.33-49.9-6c-3.63-1.33-18.68-24.84-25-36.44A37.12,37.12,0,0,1,131.38,605.09Z" transform="translate(76.47 -1.4)"/><path class="cls-40" d="M131.5,610.62q-4.51-8.89-8.3-18.14a131.74,131.74,0,0,1-5-13.22,9.92,9.92,0,0,1,2.55-10.33c2.38-2.33,6.06-4.51,9.52-4.3a10.13,10.13,0,0,1,6,2.88c7.25,6.58,12,16,16.16,24.69,1.18,2.51,3.32,5.44,1.36,8C151.67,603,148,605,145,606.46,143.77,607,132.05,611.71,131.5,610.62Z" transform="translate(76.47 -1.4)"/><path class="cls-39" d="M225.19,640.06l19.68-2.33a5,5,0,0,1,3.61.87l7.67,5.48a.55.55,0,0,1,0,.89h0a3.65,3.65,0,0,1-4,.32l-5.13-2.77-4.85,1,8.55,3.07,7.1,4.84a.4.4,0,0,1,.09.56h0a3.47,3.47,0,0,1-4.2,1.12h0l-.17.18a3.84,3.84,0,0,1-4.42.89L244,651.75l-3.53-.19,8,4.55h0a3.48,3.48,0,0,1-3.8,1.16l-6.41-2.07-4.33.57h-.1a15.23,15.23,0,0,1-13.07-5.06l-1.88-2.09" transform="translate(76.47 -1.4)"/><path class="cls-14" d="M254.33,653a5.39,5.39,0,0,0-1.36-1.42c-.53-.47-1.09-.94-1.65-1.39a15.4,15.4,0,0,0-3.59-2.34,16.06,16.06,0,0,0-3.48-.84c-.6-.1-1.2-.22-1.79-.37a6.45,6.45,0,0,0-1-.25,5.82,5.82,0,0,0-1,.06c-.08,0-.14.09-.09.16a2.33,2.33,0,0,0,1.24,1.17,9.35,9.35,0,0,0,1.8.47,21.76,21.76,0,0,1,3.59.73,15.58,15.58,0,0,1,3.71,2.18c.58.42,1.16.85,1.77,1.24a4.37,4.37,0,0,0,1.71.82c.12,0,.17-.13.13-.22Z" transform="translate(76.47 -1.4)"/><path class="cls-9" d="M286.18,438.79,286,409.15a11,11,0,0,1,10.88-11l48.18-.37a11,11,0,0,1,11,10.88l.23,29.64a11,11,0,0,1-6.38,10L351,458l-10.82-8.7-42.92.33A11,11,0,0,1,286.18,438.79Z" transform="translate(76.47 -1.4)"/><path class="cls-41" d="M319.8,435.35l13.6.07a.86.86,0,0,0,.32-.05,3.72,3.72,0,0,0,1.94-1.58,2.12,2.12,0,0,0,0-1.79h0a.85.85,0,0,1,.32-1h0a2.44,2.44,0,0,0,.88-3.07h0a.86.86,0,0,1,.27-1.06h0a2.18,2.18,0,0,0,.68-2.83h0a.83.83,0,0,1,.3-1.09h0s1.29-.88,1.09-2.06c-.14-.89-1.91-1.08-2.38-1.08l-9.06-.13a.85.85,0,0,1-.79-1.13h0c.39-1.08,1.3-4.3.86-6.11a21.75,21.75,0,0,0-1.52-4.12.89.89,0,0,0-.3-.34,1.74,1.74,0,0,0-.51-.22,1.69,1.69,0,0,0-1.24.19.83.83,0,0,0-.42.73l0,4,0,.15a34,34,0,0,1-5,8.33l-.09.12-1.66,1-.38.14-.06,10.92a.86.86,0,0,0,.84.85h0a.85.85,0,0,1,.42.11l1.6.93A.81.81,0,0,0,319.8,435.35Z" transform="translate(76.47 -1.4)"/><path class="cls-41" d="M306.22,436.2l8.6,0,0-6.7,0-8-8.59-.05Z" transform="translate(76.47 -1.4)"/><path class="cls-9" d="M407,412.06l48.38,5.55a11.07,11.07,0,0,1,9.74,12.27l-3.42,29.76a11.07,11.07,0,0,1-12.26,9.74l-31.84-3.65L400.4,476.65l1.32-12.74-.71-.08a11.07,11.07,0,0,1-9.74-12.27l3.41-29.76A11.07,11.07,0,0,1,407,412.06Z" transform="translate(76.47 -1.4)"/><path class="cls-41" d="M412.82,435.43c.6-4.24,3.6-7.81,8.75-7.26a8.1,8.1,0,0,1,6.78,5.33,8.14,8.14,0,0,1,7.76-3.78c7.06.75,8.69,8.6,5.4,13.79-3.49,5.49-9.18,9.12-15.34,10.95h-.1c-5.32-2.91-10.55-7.6-12.67-13.41A11.6,11.6,0,0,1,412.82,435.43Z" transform="translate(76.47 -1.4)"/><path class="cls-9" d="M431.49,495.46l34.38,16a8.62,8.62,0,0,1,4.18,11.46L460.22,544a8.62,8.62,0,0,1-11.46,4.18L426.14,537.7l-15.35,3.86,4.1-9.09-.5-.23a8.62,8.62,0,0,1-4.18-11.46L420,499.64A8.62,8.62,0,0,1,431.49,495.46Z" transform="translate(76.47 -1.4)"/><path class="cls-41" d="M441.84,526.32l-2.69,4.41,18.66-.66h0l-7.93-16.9-2.7,4.41a28.06,28.06,0,0,0-13.65-2,22.57,22.57,0,0,0-16.14,10.68s4.91-4.53,11.42-4.85C436.05,521.05,441.84,526.32,441.84,526.32Z" transform="translate(76.47 -1.4)"/><text class="cls-42" transform="translate(331.78 507.05)">LIVE</text><circle class="cls-9" cx="316.97" cy="493.67" r="7.89"/><rect class="cls-41" x="181.6" y="96.43" width="309.84" height="191.37" transform="translate(219.89 526.67) rotate(-89.83)"/><polygon class="cls-43" points="503.34 349.33 321.67 348.8 321.67 348.8 321.95 247.13 503.63 247.67 503.34 349.33"/><rect class="cls-44" x="283.85" y="258.98" width="51.78" height="6.15" transform="translate(77.23 -2.3) rotate(0.17)"/><polyline class="cls-44" points="360.27 276.32 360.28 270.18 439.24 270.41 439.22 276.55"/><line class="cls-44" x1="439.22" y1="276.55" x2="360.27" y2="276.32"/><circle class="cls-45" cx="262.61" cy="268.25" r="11.24" transform="translate(2.78 433.67) rotate(-71.99)"/><rect class="cls-44" x="284.66" y="291.66" width="51.78" height="6.15" transform="translate(77.33 -2.3) rotate(0.17)"/><polyline class="cls-44" points="361.08 309 361.1 302.86 440.06 303.09 440.04 309.23"/><line class="cls-44" x1="440.04" y1="309.23" x2="361.08" y2="309"/><polyline class="cls-44" points="361.08 335.96 361.1 329.82 440.06 330.05 440.04 336.19"/><line class="cls-44" x1="440.04" y1="336.19" x2="361.08" y2="335.96"/><circle class="cls-45" cx="263.43" cy="300.93" r="11.24" transform="matrix(0.31, -0.95, 0.95, 0.31, -27.73, 457.03)"/><circle class="cls-45" cx="264.58" cy="330.34" r="11.24" transform="translate(-54.9 478.44) rotate(-71.99)"/><circle class="cls-45" cx="410.82" cy="330.34" r="11.24" transform="translate(46.13 617.52) rotate(-71.99)"/><path class="cls-21" d="M432.63,37.74l-191.36-.56,0-5.62A15.64,15.64,0,0,1,257,16L417,16.42a15.64,15.64,0,0,1,15.6,15.7Z" transform="translate(76.47 -1.4)"/><path class="cls-21" d="M416,391.46l-160-.49a15.67,15.67,0,0,1-15.61-15.7L240.4,347l191.33.59-.08,28.24A15.65,15.65,0,0,1,416,391.46Z" transform="translate(76.47 -1.4)"/><path class="cls-46" d="M345.74,366.59A10.77,10.77,0,1,1,333.16,358,10.76,10.76,0,0,1,345.74,366.59Z" transform="translate(76.47 -1.4)"/><path class="cls-46" d="M343.27,26A5.36,5.36,0,1,1,337,21.73,5.37,5.37,0,0,1,343.27,26Z" transform="translate(76.47 -1.4)"/><polygon class="cls-21" points="321.68 345.66 322.58 35.82 383.17 35.99 317.73 35.8 316.83 345.64 402.08 345.89 321.68 345.66"/><rect class="cls-21" x="274.84" y="190.25" width="309.84" height="4.85" transform="translate(312.3 620.47) rotate(-89.83)"/><g class="cls-47"><path class="cls-48" d="M376.38,191.92h0a6,6,0,0,0-5.91,4.84c-2.67,13.81-5.43,40.36-4.81,54.25l27.63.08h0c-4.27-19.67-8.65-44.74-11.09-54.62A6,6,0,0,0,376.38,191.92Z" transform="translate(76.47 -1.4)"/><path class="cls-40" d="M368.93,214.87c2.31-17.22,5.95-32.92,7.07-34.18s2.72,1.47,3.93,4.13a39.6,39.6,0,0,1,2.33,6.78c1,4,3.12,12.5,5.68,23.32Z" transform="translate(76.47 -1.4)"/><path class="cls-48" d="M269.91,191.6h0a6,6,0,0,1,5.89,4.88c2.58,13.83,5.19,40.39,4.49,54.28l-27.63-.08h0c4.39-19.65,8.91-44.69,11.41-54.55A6,6,0,0,1,269.91,191.6Z" transform="translate(76.47 -1.4)"/><path class="cls-40" d="M277.23,214.6c-2.21-17.23-5.76-32.95-6.87-34.22s-2.73,1.45-4,4.11a40.19,40.19,0,0,0-2.37,6.77c-1,4-3.19,12.47-5.81,23.28Z" transform="translate(76.47 -1.4)"/><path class="cls-48" d="M338.27,156.55c-.75-9.32-2.09-26.07-2.09-26.07l-24.93-.07L309.43,156a11,11,0,0,1-6.37,9.24L271.32,180l9.09,67.39,87.83.26,7.51-65.79-31.57-16.44A11,11,0,0,1,338.27,156.55Z" transform="translate(76.47 -1.4)"/><path class="cls-27" d="M320.24,158.35c7.16,1.63,14.49-3.19,17.89-9.22l-1.49-18.68a.47.47,0,0,0-.46-.43L311.25,130a.46.46,0,0,0-.46.43l-1.36,19.18C312.3,153.34,315.51,157.28,320.24,158.35Z" transform="translate(76.47 -1.4)"/><path class="cls-25" d="M346,164.36s-5.11,22.3-22.33,22.26c-17.4-.05-22.44-23.06-22.44-23.06L269.67,180l6.54,71.08,47.24.14,47.08.13,6.71-70.75Z" transform="translate(76.47 -1.4)"/><path class="cls-48" d="M353.46,105.1c1.7.67,2.65,2.9,2.84,5a20.59,20.59,0,0,1-4.81,15.1,6.3,6.3,0,0,1-2,1.69c-5.52,2.55-3.42-13.55-2.87-16C347.21,108.08,350,103.74,353.46,105.1Z" transform="translate(76.47 -1.4)"/><path class="cls-49" d="M353.43,111.28a3.61,3.61,0,0,0-.36-1.11,1.16,1.16,0,0,0-.94-.62c-.73,0-1.15.82-1.34,1.53a21.52,21.52,0,0,0-.8,5.64.46.46,0,0,1,.64-.08,1.06,1.06,0,0,1,.36.6,3.58,3.58,0,0,1-2.51,4.31" transform="translate(76.47 -1.4)"/><path class="cls-48" d="M294.86,104.93c-1.7.66-2.66,2.88-2.87,5A20.63,20.63,0,0,0,296.72,125a6,6,0,0,0,2,1.7c5.51,2.58,3.5-13.53,3-16C301.09,108,298.36,103.59,294.86,104.93Z" transform="translate(76.47 -1.4)"/><path class="cls-49" d="M294.85,111.11a3.54,3.54,0,0,1,.37-1.11,1.18,1.18,0,0,1,.94-.62c.74,0,1.15.83,1.34,1.54a21.61,21.61,0,0,1,.76,5.65.46.46,0,0,0-.63-.09,1.08,1.08,0,0,0-.37.6,3.58,3.58,0,0,0,2.49,4.33" transform="translate(76.47 -1.4)"/><path class="cls-48" d="M298.65,103.72a65.91,65.91,0,0,1,2-12.63c1.67-6.34,5.43-12.2,11.21-15.43A30.08,30.08,0,0,1,332.9,73a21.21,21.21,0,0,1,13,8.51c3.19,4.77,3.49,12,3.94,17.57a75,75,0,0,1-2.12,24.75c-1.7,6.55-4.53,13.06-9.06,18.12-3.56,4-8.35,7-13.71,7.13a16.31,16.31,0,0,1-2.52-.14c-5.92-.8-10.79-4.82-14.29-9.5-5.23-7-8.24-15.95-9.24-24.78A63.76,63.76,0,0,1,298.65,103.72Z" transform="translate(76.47 -1.4)"/><path class="cls-15" d="M353.31,98.69c-.43-2.13-1-4.17-1.08-5a3.61,3.61,0,0,0,1.88,2.62,6.07,6.07,0,0,0,3.25.66c7.43-.35,6-9.36,2.29-13.17a6.64,6.64,0,0,0-5.57-2.08,8.09,8.09,0,0,0,6.36-4.81c2.17-5.15-1.38-9.47-6.15-11-2.42-.76-5.22-1.06-7.36.31.23-2.77-2.2-5-4.53-6.47-10.35-6.58-30.6-11.08-39.6.34,1.3-2-1.93-4.37-4.05-3.32s-2.86,3.67-3.29,6c-2.07,11.35-1.07,24.1-1.13,35.66,0,2.05.09,4.09.17,6.13,0,0,.12,0,.27.07a2.15,2.15,0,0,1,2.22,0c1.1.33,1.35,1.87,1.44,3.25.17.89.1,2,.18,2.81.11,1.22.21,2.43.32,3.65.74-4.1,1.49-8.2,2.22-12.3,1.25-7,1.06-13.45,4.3-20,.31-.62.79-1.32,1.48-1.27a1.78,1.78,0,0,1,1,.54c2.83,2.45,5.44,5.32,8.63,7.32,2.27,1.43,5.78,3,8.37,1.71a5.36,5.36,0,0,0,2.74-5.94A24.94,24.94,0,0,0,330.56,91a8.71,8.71,0,0,0,5.79,3.87,5.39,5.39,0,0,0,5.77-3.26,21.48,21.48,0,0,0,.46-3.42,6.12,6.12,0,0,0,1.2,2.05,2.1,2.1,0,0,0,2.19.58c.41,3.4.55,6.81.88,10.21.47,4.81,1.43,9.6,2.16,14.38.25-2.07.51-4.14.76-6.22a6.42,6.42,0,0,1,.87-3,2.47,2.47,0,0,1,1.94-1C354.32,105.18,354,101.83,353.31,98.69Z" transform="translate(76.47 -1.4)"/><path class="cls-48" d="M324.61,126.17a4.17,4.17,0,0,1-3.55-5.41q.62-6.74,1.25-13.47" transform="translate(76.47 -1.4)"/><path class="cls-15" d="M310.76,113.85c-3.09-.35-2.55-5.15.54-4.8s2.55,5.15-.54,4.8Z" transform="translate(76.47 -1.4)"/><path class="cls-15" d="M302.08,104.35a22.44,22.44,0,0,1,6.75-1.48,19.53,19.53,0,0,1,6.73,1.5c.77.26,1.18-.86.54-1.28-4.05-2.63-10.54-2.57-14.39.37-.4.3-.2,1.07.37.89Z" transform="translate(76.47 -1.4)"/><path class="cls-15" d="M336.65,113.92c3.09-.33,2.58-5.13-.51-4.79s-2.58,5.13.51,4.79Z" transform="translate(76.47 -1.4)"/><path class="cls-15" d="M345.76,103.59c-3.84-3-10.33-3.06-14.39-.45-.63.41-.25,1.54.54,1.27a19,19,0,0,1,6.74-1.46,24.43,24.43,0,0,1,6.73,1.52c.57.19.78-.57.38-.88Z" transform="translate(76.47 -1.4)"/><path class="cls-9" d="M327.09,133.74a42.06,42.06,0,0,0,5.65-1.2,3.77,3.77,0,0,0,.09-1.69,1.21,1.21,0,0,0-.68-.87,2.93,2.93,0,0,0-1.36-.2,78.32,78.32,0,0,1-15-.4,1.08,1.08,0,0,0-1,.28,3,3,0,0,0,0,2.65A24.54,24.54,0,0,0,327.09,133.74Z" transform="translate(76.47 -1.4)"/><path class="cls-15" d="M327.09,133.74a24.54,24.54,0,0,1-12.31-1.43,11.48,11.48,0,0,0,1.13,2.37c3.53,5.57,12.29,5.09,15.92-.11a6.4,6.4,0,0,0,.91-2A42.06,42.06,0,0,1,327.09,133.74Z" transform="translate(76.47 -1.4)"/><path class="cls-9" d="M350.63,96.38h0a2.06,2.06,0,0,0-2.09,2l-.39,27.75a2.06,2.06,0,0,0,2,2.09h0a7.92,7.92,0,0,0,8-7.8l.22-16A7.91,7.91,0,0,0,350.63,96.38Z" transform="translate(76.47 -1.4)"/><path class="cls-33" d="M351.53,96.45a7.76,7.76,0,0,1,2.91,1L354,127.31a7.69,7.69,0,0,1-2.94.89Z" transform="translate(76.47 -1.4)"/><path class="cls-9" d="M346.67,66.46a10.74,10.74,0,0,1,4.47-1.12,30.32,30.32,0,0,0-35.76-10.28C298.79,61.75,291.51,79,292.29,96c.13,2.72,4.38,2.75,4.25,0-.61-13.12,3.59-27,15.29-34.33C323.26,54.46,338,56.35,346.67,66.46Z" transform="translate(76.47 -1.4)"/><path class="cls-9" d="M296,95.14h0a2.06,2.06,0,0,1,2.13,2l1,27.74a2.06,2.06,0,0,1-2,2.13h0a7.92,7.92,0,0,1-8.19-7.63l-.56-16A7.91,7.91,0,0,1,296,95.14Z" transform="translate(76.47 -1.4)"/><path class="cls-33" d="M295.07,95.22a7.88,7.88,0,0,0-2.89,1l1,29.88a8,8,0,0,0,3,.83Z" transform="translate(76.47 -1.4)"/><path class="cls-48" d="M388.31,277.73c2.19-8,5-19.44,10.79-38.73,3.61-12.06,5-44,7-56.82q.48-3,.93-6a14.61,14.61,0,0,1,.9-3.7,29.66,29.66,0,0,1,2.1-3.38c1.9-3.08,1.45-6.45,2.76-9.53a24.12,24.12,0,0,1,4.77-7.34c3.08-3.31,5.38-6,3.66-7s-7.1,6.2-11.76,10.62a90.5,90.5,0,0,1,4.58-10c2.35-4.83,4.63-8.72,2.25-8.81s-6,7.78-11.36,16.24l-.35-.18c.22-1.2,2.62-9.63,3.16-11.53.94-3.31,2.11-6.26,2.12-7.7s-1.42-3.81-3.56.31c-1.86,5.32-6.1,17.62-6.22,16.93h-.42c-1.08-9.54,1.78-16.21-.71-17.45s-2.57,7.06-2.87,11.31c-.21,3.06-2,9.55-4.39,11.79a3,3,0,0,1-2.53.36,3.1,3.1,0,0,1-.71-.23c-1.15-.52-2.15-4.64-4.2-6.45s-3.47.68-3.47.68,3.63,6,4.54,11.09,4.86,6.82,5.89,9.41c.52,1.29-.05,5.78-.05,5.78-1.4,9.78-9.71,48.55-13.65,63.62" transform="translate(76.47 -1.4)"/><path class="cls-14" d="M399.29,163.62c-2.36-4.56-8.85-6-9.65-6.1a3.6,3.6,0,0,0,2.85-1.15C398.93,158.32,399.29,163.62,399.29,163.62Z" transform="translate(76.47 -1.4)"/></g><circle class="cls-50" cx="434.99" cy="46.4" r="45.01" transform="translate(366.35 457.7) rotate(-76.72)"/><path class="cls-51" d="M434.07,49l-.09-.65c.09-1.32-.1-2.67.57-3.9l.64.55c1.41,1.16.23,2.68.54,4l-.54,0Z" transform="translate(76.47 -1.4)"/><path class="cls-52" d="M436,45.65l-.88,2.2c-.4-.77-2.54-1.54,0-2.32Z" transform="translate(76.47 -1.4)"/><path class="cls-53" d="M434.13,44.4h1.12c.18.57.36,1.14.55,1.71-.61.41,0,.77,0,1.14l-.6.6a1.11,1.11,0,0,0-.57,1.12C433.54,47.57,434.33,45.92,434.13,44.4Z" transform="translate(76.47 -1.4)"/><path class="cls-54" d="M427.53,46.91V74.48a.72.72,0,0,0,.72.72h10.24a.72.72,0,0,0,.72-.72v-28h7.42a.71.71,0,0,0,.71-.65l.72-8.44a.73.73,0,0,0-.72-.78h-8.13v-6a2.53,2.53,0,0,1,2.54-2.54h5.72a.72.72,0,0,0,.72-.72V18.9a.72.72,0,0,0-.72-.72H437.8a10.27,10.27,0,0,0-10.27,10.27v8.14h-5.12a.71.71,0,0,0-.71.72v8.44a.71.71,0,0,0,.71.71h5.12Z" transform="translate(76.47 -1.4)"/><polygon class="cls-43" points="313.08 347.28 121.71 346.72 121.71 346.72 122.61 36.88 313.98 37.44 313.08 347.28"/><polygon class="cls-43" points="308.23 347.27 126.56 346.74 126.56 346.74 127.45 36.89 309.13 37.42 308.23 347.27"/><rect class="cls-41" x="73.66" y="10.83" width="135.93" height="191.37" transform="translate(111.16 246.44) rotate(-89.83)"/><path class="cls-55" d="M71.54,218.36h5a1.08,1.08,0,0,1,1.08,1.08v1.51A1.07,1.07,0,0,1,76.58,222h-5a1.07,1.07,0,0,1-1.07-1.07v-1.51a1.07,1.07,0,0,1,1.07-1.07Z" transform="translate(-71.17 288.2) rotate(-88.8)"/><path class="cls-56" d="M81.53,214.93c-.07.14-.18.29,0,.43s.12,0,.18,0l3.53.07a.44.44,0,0,0,.16,0,.85.85,0,0,1,.71.73,2.54,2.54,0,0,0,0,.39.68.68,0,0,1-.25.45.36.36,0,0,0,0,.57,1.16,1.16,0,0,1,.31.81,1,1,0,0,1-.44.74.38.38,0,0,0-.1.56.76.76,0,0,1-.19,1.15.41.41,0,0,0-.14.5c.42,1-.13,1.6-1.22,1.58-1.55,0-3.11,0-4.66,0H77.58c-.43,0-.86-.17-.86-.69,0-1.1.11-4.59.1-5.24a1.09,1.09,0,0,1,.2-.62,17.81,17.81,0,0,1,2.08-2.74,2.42,2.42,0,0,1,.31-.25,1.06,1.06,0,0,0,.46-.93,3.93,3.93,0,0,1,.13-1.13.94.94,0,0,1,1.61-.32,2.67,2.67,0,0,1,.49,2.29A8.9,8.9,0,0,1,81.53,214.93Z" transform="translate(76.47 -1.4)"/><path class="cls-45" d="M125.74,212.57h5a1.08,1.08,0,0,1,1.08,1.08v1.51a1.07,1.07,0,0,1-1.07,1.07h-5a1.07,1.07,0,0,1-1.07-1.07v-1.51a1.07,1.07,0,0,1,1.07-1.07Z" transform="translate(-12.29 336.8) rotate(-88.81)"/><path class="cls-57" d="M120.79,219.66c.06-.14.17-.29,0-.43,0-.07-.11,0-.17,0l-3.53-.07a.29.29,0,0,0-.16,0,.83.83,0,0,1-.71-.73c0-.13,0-.26,0-.4a.62.62,0,0,1,.25-.44.36.36,0,0,0,0-.57,1.2,1.2,0,0,1-.3-.81,1,1,0,0,1,.44-.74.38.38,0,0,0,.1-.56.76.76,0,0,1,.19-1.15.41.41,0,0,0,.14-.5c-.42-1,.13-1.6,1.21-1.58,1.56,0,3.12,0,4.67,0h1.81c.43,0,.86.18.86.7,0,1.1-.12,4.59-.11,5.24a1.08,1.08,0,0,1-.19.62,17.88,17.88,0,0,1-2.09,2.74,1.81,1.81,0,0,1-.3.25,1,1,0,0,0-.47.92,3.66,3.66,0,0,1-.12,1.14.94.94,0,0,1-1.61.32,2.68,2.68,0,0,1-.5-2.29A9.51,9.51,0,0,1,120.79,219.66Z" transform="translate(76.47 -1.4)"/><path class="cls-45" d="M169.19,218.08v2.24l6.76-4.44h0l-6.73-4.47v2.23a12.12,12.12,0,0,0-5.5,2.33,9.77,9.77,0,0,0-3.57,7.58,7.66,7.66,0,0,1,9.06-5.47Z" transform="translate(76.47 -1.4)"/><rect class="cls-45" x="205.98" y="212.35" width="10.78" height="1.49" transform="translate(77.09 -2.01) rotate(0.17)"/><rect class="cls-45" x="205.97" y="215.46" width="10.78" height="1.49" transform="translate(77.1 -2.01) rotate(0.17)"/><rect class="cls-45" x="205.96" y="218.57" width="7.81" height="1.49" transform="translate(77.11 -2.01) rotate(0.17)"/><rect class="cls-45" x="215.05" y="218.6" width="7.03" height="1.49" transform="translate(77.11 -2.03) rotate(0.17)"/><polygon class="cls-45" points="294.33 221.5 294.3 214.44 295.78 214.43 295.81 221.5 294.33 221.5"/><rect class="cls-58" x="68.4" y="271.49" width="74.02" height="44.83" transform="translate(77.33 -1.7) rotate(0.17)"/><rect class="cls-59" x="122.39" y="304.76" width="12.32" height="6.96" transform="translate(77.37 -1.77) rotate(0.17)"/><rect class="cls-58" x="152.47" y="271.67" width="29.65" height="8.04" transform="translate(77.27 -1.88) rotate(0.17)"/><rect class="cls-58" x="152.43" y="288.13" width="40.04" height="3.89" transform="translate(77.31 -1.9) rotate(0.17)"/><rect class="cls-58" x="152.4" y="297.3" width="40.04" height="3.89" transform="translate(77.34 -1.9) rotate(0.17)"/><polygon class="cls-58" points="218.75 346.68 218.82 324.13 144.8 323.91 144.73 346.5 218.75 346.68"/><rect class="cls-58" x="152.33" y="325.6" width="29.65" height="8.04" transform="translate(77.43 -1.88) rotate(0.17)"/><rect class="cls-58" x="152.29" y="342.06" width="40.04" height="3.89" transform="translate(77.47 -1.9) rotate(0.17)"/><line class="cls-60" x1="121.96" y1="258.95" x2="313.33" y2="259.51"/><line class="cls-60" x1="122.05" y1="228.44" x2="313.42" y2="229"/><rect class="cls-44" x="101.17" y="184.72" width="51.78" height="6.15" transform="translate(77.02 -1.77) rotate(0.17)"/><rect class="cls-44" x="101.13" y="197.43" width="78.96" height="6.14" transform="translate(77.05 -1.81) rotate(0.17)"/><rect class="cls-44" x="72.83" y="240.33" width="67.65" height="9.93" transform="translate(77.18 -1.71) rotate(0.17)"/><circle class="cls-45" cx="79.93" cy="193.99" r="11.24" transform="translate(-52.8 208.64) rotate(-71.99)"/><rect class="cls-61" x="176.21" y="241.47" width="43.28" height="7.52" transform="translate(77.18 -1.97) rotate(0.17)"/><rect class="cls-61" x="156.28" y="239.65" width="13.76" height="11.63" rx="3.42" transform="translate(77.18 -1.87) rotate(0.17)"/><polygon class="cls-62" points="237.6 244.06 237.61 241.26 240.04 242.67 242.46 244.08 240.03 245.47 237.6 246.87 237.6 244.06"/><polygon class="cls-45" points="293.4 181.23 289.32 181.22 291.35 183.58 293.38 185.95 295.43 183.59 297.48 181.24 293.4 181.23"/><path class="cls-63" d="M205.68,277l12.18,0a3.38,3.38,0,0,0,3.38-3.36h0a3.38,3.38,0,0,0-3.36-3.39l-12.18,0a3.39,3.39,0,0,0-3.38,3.37h0A3.39,3.39,0,0,0,205.68,277Z" transform="translate(76.47 -1.4)"/><path class="cls-64" d="M212.71,274.36a6.18,6.18,0,1,0,6.2-6.16A6.19,6.19,0,0,0,212.71,274.36Z" transform="translate(76.47 -1.4)"/><path class="cls-55" d="M212.71,272.81a6.19,6.19,0,1,0,6.2-6.17A6.19,6.19,0,0,0,212.71,272.81Z" transform="translate(76.47 -1.4)"/><g class="cls-65"><path class="cls-48" d="M168.73,136.58h0a3.64,3.64,0,0,0-3.6,2.94c-1.62,8.41-3.3,24.55-2.92,33l16.81.05h0c-2.6-12-5.26-27.23-6.75-33.23A3.64,3.64,0,0,0,168.73,136.58Z" transform="translate(76.47 -1.4)"/><path class="cls-40" d="M164.2,150.54c1.4-10.47,3.61-20,4.29-20.79s1.66.89,2.4,2.51a23.56,23.56,0,0,1,1.41,4.12c.62,2.45,1.9,7.61,3.46,14.19Z" transform="translate(76.47 -1.4)"/><path class="cls-48" d="M104,136.39h0a3.63,3.63,0,0,1,3.58,3c1.58,8.42,3.16,24.58,2.73,33l-16.8,0h0c2.66-12,5.42-27.2,6.94-33.19A3.63,3.63,0,0,1,104,136.39Z" transform="translate(76.47 -1.4)"/><path class="cls-40" d="M108.41,150.37c-1.35-10.47-3.5-20-4.18-20.81s-1.66.88-2.41,2.5a24.1,24.1,0,0,0-1.44,4.11c-.63,2.44-1.94,7.59-3.54,14.17Z" transform="translate(76.47 -1.4)"/><path class="cls-48" d="M145.54,115.06c-.45-5.67-1.27-15.86-1.27-15.86l-15.17,0L128,114.75a6.73,6.73,0,0,1-3.88,5.62l-19.31,9,5.53,41,53.43.16,4.57-40-19.2-10A6.69,6.69,0,0,1,145.54,115.06Z" transform="translate(76.47 -1.4)"/><path class="cls-27" d="M134.57,116.16c4.36,1,8.82-2,10.89-5.61l-.91-11.37a.29.29,0,0,0-.28-.26l-15.17,0a.28.28,0,0,0-.28.26L128,110.81C129.74,113.11,131.7,115.5,134.57,116.16Z" transform="translate(76.47 -1.4)"/><path class="cls-25" d="M150.22,119.81s-3.1,13.57-13.58,13.54-13.65-14-13.65-14l-19.18,10,4,43.24,28.74.09,28.64.08,4.08-43Z" transform="translate(76.47 -1.4)"/><path class="cls-48" d="M154.78,83.76c1,.41,1.61,1.76,1.73,3A12.54,12.54,0,0,1,153.58,96a3.88,3.88,0,0,1-1.22,1c-3.36,1.55-2.08-8.25-1.75-9.77C151,85.58,152.66,82.93,154.78,83.76Z" transform="translate(76.47 -1.4)"/><path class="cls-49" d="M154.77,87.52a2.35,2.35,0,0,0-.22-.68.72.72,0,0,0-.58-.37c-.44,0-.69.5-.81.93a12.8,12.8,0,0,0-.49,3.43.29.29,0,0,1,.39,0,.64.64,0,0,1,.22.37,2.18,2.18,0,0,1-1.53,2.62" transform="translate(76.47 -1.4)"/><path class="cls-48" d="M119.13,83.66c-1,.4-1.62,1.75-1.74,3a12.55,12.55,0,0,0,2.87,9.2,3.91,3.91,0,0,0,1.22,1c3.35,1.57,2.13-8.24,1.81-9.76C122.93,85.49,121.26,82.84,119.13,83.66Z" transform="translate(76.47 -1.4)"/><path class="cls-49" d="M119.13,87.42a2.26,2.26,0,0,1,.22-.68.74.74,0,0,1,.58-.37c.44,0,.69.5.81.93a12.9,12.9,0,0,1,.46,3.44.27.27,0,0,0-.38,0,.63.63,0,0,0-.23.36,2.18,2.18,0,0,0,1.52,2.63" transform="translate(76.47 -1.4)"/><path class="cls-48" d="M121.44,82.92a40.09,40.09,0,0,1,1.2-7.68,14.93,14.93,0,0,1,6.83-9.39,18.27,18.27,0,0,1,12.8-1.63,12.88,12.88,0,0,1,7.92,5.18c1.94,2.9,2.12,7.27,2.39,10.69a45.43,45.43,0,0,1-1.28,15,26.53,26.53,0,0,1-5.51,11,11.92,11.92,0,0,1-8.34,4.33,8.79,8.79,0,0,1-1.54-.08c-3.6-.49-6.56-2.93-8.69-5.78a31.16,31.16,0,0,1-5.62-15.07A39.6,39.6,0,0,1,121.44,82.92Z" transform="translate(76.47 -1.4)"/><path class="cls-15" d="M154.69,79.86c-.26-1.3-.6-2.53-.66-3a2.24,2.24,0,0,0,1.15,1.6,3.72,3.72,0,0,0,2,.4c4.53-.21,3.67-5.69,1.4-8a4,4,0,0,0-3.39-1.26A4.94,4.94,0,0,0,159,66.62c1.32-3.14-.84-5.76-3.74-6.67a5.37,5.37,0,0,0-4.48.18c.14-1.68-1.34-3-2.76-3.93-6.29-4-18.61-6.74-24.09.21.8-1.21-1.17-2.67-2.46-2s-1.74,2.22-2,3.64c-1.26,6.9-.65,14.66-.69,21.69,0,1.25.06,2.49.11,3.73,0,0,.06,0,.16,0a1.33,1.33,0,0,1,1.35,0c.67.21.82,1.14.87,2a14.39,14.39,0,0,1,.11,1.7l.2,2.22L123,81.93c.76-4.24.65-8.18,2.61-12.15.19-.37.49-.8.91-.77a1,1,0,0,1,.59.33,45.41,45.41,0,0,0,5.25,4.45c1.39.87,3.52,1.81,5.09,1a3.24,3.24,0,0,0,1.67-3.61,15.24,15.24,0,0,0,1.77,4,5.27,5.27,0,0,0,3.52,2.36,3.27,3.27,0,0,0,3.51-2,13.14,13.14,0,0,0,.28-2.09,4,4,0,0,0,.73,1.26,1.28,1.28,0,0,0,1.34.34c.24,2.08.33,4.15.53,6.22.29,2.93.87,5.84,1.31,8.75.16-1.26.31-2.53.47-3.79a3.89,3.89,0,0,1,.53-1.8,1.51,1.51,0,0,1,1.18-.64C155.31,83.81,155.08,81.77,154.69,79.86Z" transform="translate(76.47 -1.4)"/><path class="cls-48" d="M137.23,96.58a2.54,2.54,0,0,1-2.16-3.29c.25-2.73.51-5.47.76-8.2" transform="translate(76.47 -1.4)"/><path class="cls-15" d="M128.8,89.08a1.47,1.47,0,0,1,.34-2.91,1.47,1.47,0,0,1-.34,2.91Z" transform="translate(76.47 -1.4)"/><path class="cls-15" d="M123.53,83.3a13.75,13.75,0,0,1,4.1-.9,12.15,12.15,0,0,1,4.1.92c.47.16.71-.53.32-.78a8.16,8.16,0,0,0-8.75.22c-.24.19-.12.65.23.54Z" transform="translate(76.47 -1.4)"/><path class="cls-15" d="M144.56,89.13a1.47,1.47,0,0,0-.32-2.92,1.47,1.47,0,0,0,.32,2.92Z" transform="translate(76.47 -1.4)"/><path class="cls-15" d="M150.1,82.84a8.17,8.17,0,0,0-8.75-.27c-.39.25-.16.94.32.77a11.55,11.55,0,0,1,4.1-.88,14.17,14.17,0,0,1,4.1.92c.34.11.47-.35.23-.54Z" transform="translate(76.47 -1.4)"/><path class="cls-9" d="M138.74,101.18a22.39,22.39,0,0,0,3.44-.73,2.1,2.1,0,0,0,0-1,.74.74,0,0,0-.41-.53,1.65,1.65,0,0,0-.83-.12,47.92,47.92,0,0,1-9.12-.25.68.68,0,0,0-.62.17,1.83,1.83,0,0,0,0,1.62A15,15,0,0,0,138.74,101.18Z" transform="translate(76.47 -1.4)"/><path class="cls-15" d="M138.74,101.18a15,15,0,0,1-7.49-.86,6.94,6.94,0,0,0,.69,1.44c2.14,3.38,7.47,3.09,9.68-.07a3.81,3.81,0,0,0,.56-1.24A22.39,22.39,0,0,1,138.74,101.18Z" transform="translate(76.47 -1.4)"/><path class="cls-9" d="M153.06,78.45h0a1.26,1.26,0,0,0-1.27,1.24l-.24,16.88a1.25,1.25,0,0,0,1.24,1.27h0a4.81,4.81,0,0,0,4.88-4.74l.14-9.76A4.83,4.83,0,0,0,153.06,78.45Z" transform="translate(76.47 -1.4)"/><path class="cls-33" d="M153.61,78.5a4.63,4.63,0,0,1,1.77.59l-.26,18.18a4.69,4.69,0,0,1-1.78.55Z" transform="translate(76.47 -1.4)"/><path class="cls-9" d="M150.65,60.25a6.66,6.66,0,0,1,2.72-.68,18.44,18.44,0,0,0-21.75-6.25c-10.09,4.07-14.52,14.58-14.05,24.89.08,1.66,2.66,1.68,2.59,0-.37-8,2.18-16.41,9.3-20.89A16.31,16.31,0,0,1,150.65,60.25Z" transform="translate(76.47 -1.4)"/><path class="cls-9" d="M119.81,77.7h0a1.24,1.24,0,0,1,1.29,1.21l.59,16.87a1.25,1.25,0,0,1-1.21,1.3h0a4.83,4.83,0,0,1-5-4.64l-.34-9.76A4.82,4.82,0,0,1,119.81,77.7Z" transform="translate(76.47 -1.4)"/><path class="cls-33" d="M119.26,77.75a4.82,4.82,0,0,0-1.76.63l.64,18.18a4.68,4.68,0,0,0,1.79.5Z" transform="translate(76.47 -1.4)"/><path class="cls-48" d="M176,188.78c1.33-4.89,3.06-11.83,6.57-23.56,2.19-7.34,3-26.78,4.27-34.56.19-1.21.38-2.43.56-3.64a9.14,9.14,0,0,1,.55-2.25,17.63,17.63,0,0,1,1.28-2.06c1.15-1.87.88-3.92,1.68-5.79a14.7,14.7,0,0,1,2.9-4.47c1.87-2,3.27-3.68,2.23-4.26s-4.32,3.77-7.16,6.46a54.09,54.09,0,0,1,2.79-6.09c1.43-2.94,2.82-5.3,1.37-5.36s-3.66,4.73-6.91,9.88l-.22-.11c.14-.73,1.6-5.86,1.93-7a30.38,30.38,0,0,0,1.28-4.68c0-.94-.86-2.32-2.16.19-1.13,3.24-3.71,10.72-3.78,10.3h-.26c-.66-5.81,1.08-9.86-.43-10.62s-1.57,4.3-1.74,6.88c-.14,1.86-1.23,5.81-2.68,7.17a1.78,1.78,0,0,1-1.54.22,1.44,1.44,0,0,1-.43-.14c-.7-.31-1.31-2.82-2.55-3.92a1.34,1.34,0,0,0-2.12.41,23.76,23.76,0,0,1,2.77,6.75c.55,3.1,2.95,4.15,3.58,5.72a12.35,12.35,0,0,1,0,3.52c-.85,5.95-5.91,29.54-8.3,38.7" transform="translate(76.47 -1.4)"/><path class="cls-14" d="M182.67,119.36c-1.44-2.78-5.39-3.62-5.88-3.71a2.18,2.18,0,0,0,1.74-.7A5.36,5.36,0,0,1,182.67,119.36Z" transform="translate(76.47 -1.4)"/></g><polyline class="cls-66" points="138.93 49.64 144.08 55 149.26 49.67"/><rect class="cls-44" x="45.75" y="171.83" width="191.37" height="3.39" transform="translate(76.97 -1.81) rotate(0.17)"/><rect class="cls-61" x="62.24" y="155.1" width="3.39" height="36.39" transform="translate(-33.08 235.33) rotate(-89.83)"/><path class="cls-61" d="M85,173.36a3.48,3.48,0,1,1-3.47-3.49A3.49,3.49,0,0,1,85,173.36Z" transform="translate(76.47 -1.4)"/><path class="cls-21" d="M237.5,38.82,46.15,38.26V32.63A15.65,15.65,0,0,1,61.86,17l160.05.46a15.66,15.66,0,0,1,15.61,15.7Z" transform="translate(76.47 -1.4)"/><path class="cls-21" d="M220.83,392.54l-160-.5a15.65,15.65,0,0,1-15.61-15.69l.08-28.24,191.34.59-.08,28.23A15.66,15.66,0,0,1,220.83,392.54Z" transform="translate(76.47 -1.4)"/><path class="cls-46" d="M150.62,367.66A10.77,10.77,0,1,1,138,359.07,10.78,10.78,0,0,1,150.62,367.66Z" transform="translate(76.47 -1.4)"/><path class="cls-46" d="M148.15,27.09a5.36,5.36,0,1,1-6.26-4.28A5.35,5.35,0,0,1,148.15,27.09Z" transform="translate(76.47 -1.4)"/><polygon class="cls-21" points="126.56 346.74 127.45 36.89 188.05 37.07 122.61 36.88 121.71 346.72 206.96 346.97 126.56 346.74"/><rect class="cls-21" x="79.72" y="191.32" width="309.84" height="4.85" transform="translate(116.67 426.42) rotate(-89.83)"/><circle class="cls-67" cx="45.82" cy="47" r="45.01" transform="translate(56.65 44.77) rotate(-45)"/><path class="cls-9" d="M74.3,39.79A12.22,12.22,0,0,0,62.08,27.57H30.4A12.21,12.21,0,0,0,18.19,39.79V54.63A12.21,12.21,0,0,0,30.4,66.85H62.08A12.22,12.22,0,0,0,74.3,54.63ZM54.31,48,41.67,54.89c-.55.29-1-.1-1-.73V39.94c0-.63.51-1,1.06-.72l12.72,7.3A.83.83,0,0,1,54.31,48Z" transform="translate(76.47 -1.4)"/></g></g></svg>